<?xml version="1.0" encoding="UTF-8" standalone="no"?>
<!-- Created with Inkscape (http://www.inkscape.org/) -->

<svg
   xmlns:dc="http://purl.org/dc/elements/1.1/"
   xmlns:cc="http://creativecommons.org/ns#"
   xmlns:rdf="http://www.w3.org/1999/02/22-rdf-syntax-ns#"
   xmlns:svg="http://www.w3.org/2000/svg"
   xmlns="http://www.w3.org/2000/svg"
   xmlns:sodipodi="http://sodipodi.sourceforge.net/DTD/sodipodi-0.dtd"
   xmlns:inkscape="http://www.inkscape.org/namespaces/inkscape"
   width="201.95468"
   height="65.904213"
   viewBox="0 0 53.433841 17.437156"
   version="1.1"
   id="svg9229"
   inkscape:version="0.92.0 r15299"
   sodipodi:docname="cges.svg">
  <defs
     id="defs9223">
    <clipPath
       id="clipPath7563"
       clipPathUnits="userSpaceOnUse">
      <path
         inkscape:connector-curvature="0"
         id="path7561"
         d="M 0,0 H 606.614 V 853.228 H 0 Z" />
    </clipPath>
    <clipPath
       id="clipPath7535"
       clipPathUnits="userSpaceOnUse">
      <path
         inkscape:connector-curvature="0"
         id="path7533"
         d="M 0,0 H 606.614 V 853.228 H 0 Z" />
    </clipPath>
    <clipPath
       id="clipPath7511"
       clipPathUnits="userSpaceOnUse">
      <path
         inkscape:connector-curvature="0"
         id="path7509"
         d="M 0,0 H 606.614 V 853.228 H 0 Z" />
    </clipPath>
    <clipPath
       id="clipPath7495"
       clipPathUnits="userSpaceOnUse">
      <path
         inkscape:connector-curvature="0"
         id="path7493"
         d="M 0,0 H 606.614 V 853.228 H 0 Z" />
    </clipPath>
    <clipPath
       id="clipPath7385"
       clipPathUnits="userSpaceOnUse">
      <path
         inkscape:connector-curvature="0"
         id="path7383"
         d="M 0,0 H 606.614 V 853.228 H 0 Z" />
    </clipPath>
  </defs>
  <sodipodi:namedview
     id="base"
     pagecolor="#ffffff"
     bordercolor="#666666"
     borderopacity="1.0"
     inkscape:pageopacity="0.0"
     inkscape:pageshadow="2"
     inkscape:zoom="4.0109088"
     inkscape:cx="99.97734"
     inkscape:cy="31.952111"
     inkscape:document-units="mm"
     inkscape:current-layer="layer1"
     showgrid="false"
     fit-margin-top="0"
     fit-margin-left="0"
     fit-margin-right="0"
     fit-margin-bottom="0"
     units="px"
     inkscape:window-width="1280"
     inkscape:window-height="744"
     inkscape:window-x="-4"
     inkscape:window-y="-4"
     inkscape:window-maximized="1" />
  <metadata
     id="metadata9226">
    <rdf:RDF>
      <cc:Work
         rdf:about="">
        <dc:format>image/svg+xml</dc:format>
        <dc:type
           rdf:resource="http://purl.org/dc/dcmitype/StillImage" />
        <dc:title></dc:title>
      </cc:Work>
    </rdf:RDF>
  </metadata>
  <g
     inkscape:label="Layer 1"
     inkscape:groupmode="layer"
     id="layer1"
     transform="translate(49.886862,-139.85015)">
    <g
       id="g9631"
       transform="translate(0.26458344,-0.26457449)">
      <path
         d="m -36.273521,156.22897 h -13.61193 v -0.44626 h 13.184011 c 0.134055,0.15592 0.276577,0.3048 0.427919,0.44626"
         style="fill:#0994dc;fill-opacity:1;fill-rule:nonzero;stroke:none;stroke-width:0.35277778"
         id="path7389"
         inkscape:connector-curvature="0" />
      <path
         d="m -32.818416,155.79223 c -0.08502,-0.008 -0.168981,-0.0183 -0.251178,-0.0307 -0.459669,-0.0339 -0.894644,-0.18592 -1.287286,-0.43392 -0.745772,-0.42615 -1.289403,-1.12642 -1.584325,-2.07398 -0.121355,-0.3309 -0.211666,-0.68474 -0.266347,-1.0548 h 3.408539 v -1.48308 h -3.432528 c 0.207081,-1.8154 1.268236,-3.27025 2.636308,-3.65443 -0.79375,-0.36406 -1.279525,-0.6611 -1.540933,-0.95109 -0.05327,0.0275 -0.105833,0.0557 -0.158044,0.085 -1.552575,0.99237 -2.609498,2.94852 -2.609498,5.19889 0,2.80317 1.639359,5.1495 3.834342,5.74569 0.394758,0.0875 0.812447,0.13653 1.25095,0.14464 z"
         style="fill:#0994dc;fill-opacity:1;fill-rule:nonzero;stroke:none;stroke-width:0.35277778"
         id="path7393"
         inkscape:connector-curvature="0" />
      <path
         d="m -30.448102,140.37972 c -0.01834,3.5e-4 -1.785761,7.1e-4 -1.804106,0.001 -2.319513,0.0529 -3.791655,1.40935 -3.791655,3.20181 0,1.57198 1.216025,2.61479 3.016603,3.30976 1.437216,0.57432 2.053166,1.17898 2.053166,2.16112 0,0.8322 -0.512939,1.45274 -1.450622,1.66934 v 1.49437 c 2.144183,-0.28857 3.314347,-1.60655 3.314347,-3.3147 0,-1.5868 -0.931686,-2.59962 -2.874433,-3.4156 -1.532114,-0.63464 -2.211211,-1.1183 -2.211211,-2.10044 0,-0.72248 0.532694,-1.48307 1.931458,-1.51376 0.02222,-7.1e-4 1.793875,-0.001 1.816453,-0.001 z"
         style="fill:#0994dc;fill-opacity:1;fill-rule:nonzero;stroke:none;stroke-width:0.35277778"
         id="path7397"
         inkscape:connector-curvature="0" />
      <path
         d="m -37.162168,155.17099 h -12.724694 v -0.44626 h 12.455877 c 0.08361,0.1524 0.173214,0.30127 0.268817,0.44626"
         style="fill:#0994dc;fill-opacity:1;fill-rule:nonzero;stroke:none;stroke-width:0.35277778"
         id="path7401"
         inkscape:connector-curvature="0" />
      <path
         d="m -37.72626,154.11301 h -12.157428 v -0.44626 h 11.987036 c 0.05186,0.15063 0.108303,0.2995 0.170392,0.44626"
         style="fill:#0994dc;fill-opacity:1;fill-rule:nonzero;stroke:none;stroke-width:0.35277778"
         id="path7405"
         inkscape:connector-curvature="0" />
      <path
         d="m -34.638043,157.2873 h -15.24388 v -0.44626 h 14.393333 c 0.264583,0.16968 0.547864,0.31961 0.850547,0.44626"
         style="fill:#231f20;fill-opacity:1;fill-rule:nonzero;stroke:none;stroke-width:0.35277778"
         id="path7409"
         inkscape:connector-curvature="0" />
      <path
         d="m -36.298568,145.54333 v 0.96943 c -0.845256,0.68122 -1.496836,1.82175 -1.805164,3.12738 v -2.60774 h -1.36278 v -1.48907 h 1.300691 -0.0011 z"
         style="fill:#231f20;fill-opacity:1;fill-rule:nonzero;stroke:none;stroke-width:0.35277778"
         id="path7413"
         inkscape:connector-curvature="0" />
      <path
         d="m -47.088629,146.29828 c -3.53e-4,0.0226 -7.06e-4,0.0452 -7.06e-4,0.0677 0,2.21157 1.287992,4.30636 3.449109,4.35222 v 1.4986 c -3.135842,-0.0681 -5.083528,-2.7693 -5.083528,-5.87974 0,-0.0127 0,-0.0258 3.53e-4,-0.0388 -3.53e-4,-0.013 -3.53e-4,-0.0261 -3.53e-4,-0.0388 0,-3.11044 1.947686,-5.8113 5.083528,-5.87974 v 1.4986 c -2.161117,0.0462 -3.449109,2.14065 -3.449109,4.35222 0,0.0226 3.53e-4,0.0452 7.06e-4,0.0677"
         style="fill:#231f20;fill-opacity:1;fill-rule:nonzero;stroke:none;stroke-width:0.35277778"
         id="path7417"
         inkscape:connector-curvature="0" />
      <path
         d="m -41.487576,146.30286 c -3.53e-4,0.0226 -7.06e-4,0.0452 -7.06e-4,0.0677 0,2.13254 1.196623,4.15608 3.218392,4.34234 -0.04374,0.51753 -0.03634,1.01918 0.02187,1.5039 -3.014133,-0.18239 -4.876094,-2.83316 -4.876094,-5.87516 0,-0.0127 3.53e-4,-0.0258 3.53e-4,-0.0388 0,-0.0131 -3.53e-4,-0.0261 -3.53e-4,-0.0392 0,-3.11256 1.94945,-5.81554 5.087408,-5.88433 v 1.50001 c -2.162528,0.0462 -3.451578,2.14242 -3.451578,4.35575 0,0.0226 3.53e-4,0.0452 7.06e-4,0.0677"
         style="fill:#231f20;fill-opacity:1;fill-rule:nonzero;stroke:none;stroke-width:0.35277778"
         id="path7421"
         inkscape:connector-curvature="0" />
      <path
         d="m -26.429257,148.26995 c -0.118181,0.0575 -0.308328,0.0967 -0.494947,0.0967 -0.566561,0 -0.917928,-0.37641 -0.917928,-1.05057 0,-0.71367 0.394406,-1.07209 0.924983,-1.07209 0.204611,0 0.365831,0.0466 0.480836,0.10019 l 0.08961,-0.34079 c -0.07549,-0.0392 -0.269169,-0.10724 -0.584553,-0.10724 -0.760236,0 -1.348316,0.50906 -1.348316,1.44145 0,0.87489 0.512586,1.38112 1.27635,1.38112 0.297744,0 0.53093,-0.0579 0.645583,-0.11536 z"
         style="fill:#231f20;fill-opacity:1;fill-rule:nonzero;stroke:none;stroke-width:0.35277778"
         id="path7425"
         inkscape:connector-curvature="0" />
      <path
         d="m -20.170627,146.23301 c 0.491419,0 0.720725,0.53799 0.720725,1.06151 0,0.58455 -0.247297,1.08303 -0.727781,1.08303 -0.473427,0 -0.724605,-0.50942 -0.724605,-1.06504 0,-0.53799 0.22613,-1.0795 0.731661,-1.0795 m 0.01446,-0.34078 c -0.703086,0 -1.18357,0.56656 -1.18357,1.43086 0,0.82833 0.448381,1.39559 1.147587,1.39559 0.667102,0 1.179688,-0.48471 1.179688,-1.43863 0,-0.78881 -0.415925,-1.38782 -1.143705,-1.38782"
         style="fill:#231f20;fill-opacity:1;fill-rule:nonzero;stroke:none;stroke-width:0.35277778"
         id="path7429"
         inkscape:connector-curvature="0" />
      <path
         d="m -16.613216,147.20103 h -0.874889 v 0.33337 h 0.473075 v 0.7747 c -0.06068,0.0325 -0.186267,0.0575 -0.365478,0.0575 -0.537986,0 -0.914752,-0.36583 -0.914752,-1.05798 0,-0.69568 0.405341,-1.05057 0.968375,-1.05057 0.251177,0 0.415925,0.0466 0.545041,0.10371 l 0.09313,-0.34043 c -0.136173,-0.0684 -0.369359,-0.115 -0.638175,-0.115 -0.821267,0 -1.40582,0.53093 -1.40582,1.42028 0,0.43744 0.150636,1.38112 1.337733,1.38112 0.32632,0 0.627592,-0.0794 0.781756,-0.1404 z"
         style="fill:#231f20;fill-opacity:1;fill-rule:nonzero;stroke:none;stroke-width:0.35277778"
         id="path7433"
         inkscape:connector-curvature="0" />
      <path
         d="m -15.092744,146.23301 c 0.491419,0 0.720725,0.53799 0.720725,1.06151 0,0.58455 -0.247297,1.08303 -0.727781,1.08303 -0.473427,0 -0.724605,-0.50942 -0.724605,-1.06504 0,-0.53799 0.22613,-1.0795 0.731661,-1.0795 m 0.01446,-0.34078 c -0.703086,0 -1.18357,0.56656 -1.18357,1.43086 0,0.82833 0.448381,1.39559 1.147587,1.39559 0.667102,0 1.179688,-0.48471 1.179688,-1.43863 0,-0.78881 -0.415925,-1.38782 -1.143705,-1.38782"
         style="fill:#231f20;fill-opacity:1;fill-rule:nonzero;stroke:none;stroke-width:0.35277778"
         id="path7437"
         inkscape:connector-curvature="0" />
      <path
         d="m -14.974563,150.50691 c 0.491419,0 0.720725,0.53799 0.720725,1.06151 0,0.58455 -0.247297,1.08303 -0.727781,1.08303 -0.473427,0 -0.724605,-0.50942 -0.724605,-1.06504 0,-0.53799 0.22613,-1.0795 0.731661,-1.0795 m 0.01446,-0.34078 c -0.703086,0 -1.18357,0.56656 -1.18357,1.43086 0,0.82833 0.448381,1.39559 1.147587,1.39559 0.667102,0 1.179688,-0.48471 1.179688,-1.43863 0,-0.78881 -0.415925,-1.38782 -1.143705,-1.38782"
         style="fill:#231f20;fill-opacity:1;fill-rule:nonzero;stroke:none;stroke-width:0.35277778"
         id="path7441"
         inkscape:connector-curvature="0" />
      <path
         d="m -3.5156357,150.50691 c 0.4914194,0 0.720725,0.53799 0.720725,1.06151 0,0.58455 -0.2472972,1.08303 -0.7277806,1.08303 -0.4734277,0 -0.7246055,-0.50942 -0.7246055,-1.06504 0,-0.53799 0.2261306,-1.0795 0.7316611,-1.0795 m 0.014464,-0.34078 c -0.7030861,0 -1.1835694,0.56656 -1.1835694,1.43086 0,0.82833 0.4483805,1.39559 1.1475861,1.39559 0.6671027,0 1.1796888,-0.48471 1.1796888,-1.43863 0,-0.78881 -0.415925,-1.38782 -1.1437055,-1.38782"
         style="fill:#231f20;fill-opacity:1;fill-rule:nonzero;stroke:none;stroke-width:0.35277778"
         id="path7445"
         inkscape:connector-curvature="0" />
      <path
         d="m -0.54630517,150.29172 c -0.11818055,-0.061 -0.3157361,-0.12559 -0.57749723,-0.12559 -0.5450416,0 -0.8928805,0.32632 -0.8928805,0.76024 0,0.37324 0.276225,0.62053 0.6850944,0.78528 0.3263195,0.13653 0.46601945,0.27975 0.46601945,0.51294 0,0.24765 -0.18273885,0.41592 -0.50905835,0.41592 -0.2261305,0 -0.4483805,-0.0716 -0.5954888,-0.16122 l -0.093133,0.34784 c 0.1326445,0.0896 0.4053417,0.16546 0.663575,0.16546 0.61665555,0 0.95743887,-0.34467 0.95743887,-0.80363 0,-0.37677 -0.21166666,-0.61701 -0.65263887,-0.81068 -0.3478389,-0.15064 -0.5020028,-0.26529 -0.5020028,-0.49848 0,-0.17568 0.1361723,-0.36583 0.4624917,-0.36583 0.22577776,0 0.39793331,0.072 0.48753887,0.12206 z"
         style="fill:#231f20;fill-opacity:1;fill-rule:nonzero;stroke:none;stroke-width:0.35277778"
         id="path7449"
         inkscape:connector-curvature="0" />
      <path
         d="m -26.748168,154.56562 c -0.118181,-0.061 -0.315736,-0.12559 -0.577497,-0.12559 -0.545042,0 -0.892881,0.32632 -0.892881,0.76024 0,0.37288 0.276225,0.62053 0.685095,0.78528 0.326319,0.13653 0.466019,0.27975 0.466019,0.51294 0,0.24765 -0.182739,0.41592 -0.509058,0.41592 -0.226131,0 -0.448381,-0.0716 -0.595489,-0.16122 l -0.09313,0.34784 c 0.132644,0.0896 0.405341,0.16546 0.663575,0.16546 0.616655,0 0.957438,-0.34467 0.957438,-0.80363 0,-0.37677 -0.211666,-0.61701 -0.652638,-0.81068 -0.347839,-0.15064 -0.502003,-0.26529 -0.502003,-0.49848 0,-0.17568 0.136172,-0.36583 0.462491,-0.36583 0.225778,0 0.397934,0.072 0.487539,0.12206 z"
         style="fill:#231f20;fill-opacity:1;fill-rule:nonzero;stroke:none;stroke-width:0.35277778"
         id="path7453"
         inkscape:connector-curvature="0" />
      <path
         d="m -23.810941,154.56562 c -0.118181,-0.061 -0.315736,-0.12559 -0.577497,-0.12559 -0.545042,0 -0.892881,0.32632 -0.892881,0.76024 0,0.37288 0.276225,0.62053 0.685095,0.78528 0.326319,0.13653 0.466019,0.27975 0.466019,0.51294 0,0.24765 -0.182739,0.41592 -0.509058,0.41592 -0.226131,0 -0.448381,-0.0716 -0.595489,-0.16122 l -0.09313,0.34784 c 0.132644,0.0896 0.405341,0.16546 0.663575,0.16546 0.616655,0 0.957438,-0.34467 0.957438,-0.80363 0,-0.37677 -0.211666,-0.61701 -0.652638,-0.81068 -0.347839,-0.15064 -0.502003,-0.26529 -0.502003,-0.49848 0,-0.17568 0.136172,-0.36583 0.462491,-0.36583 0.225778,0 0.397934,0.072 0.487539,0.12206 z"
         style="fill:#231f20;fill-opacity:1;fill-rule:nonzero;stroke:none;stroke-width:0.35277778"
         id="path7457"
         inkscape:connector-curvature="0" />
      <path
         d="m -25.522266,147.21903 v -0.95744 c 0.0508,-0.0145 0.152753,-0.0254 0.294922,-0.0254 0.301978,0 0.556684,0.12383 0.556684,0.48401 0,0.29845 -0.21837,0.49883 -0.56762,0.49883 z m 0.775406,0.16369 c 0.280105,-0.10548 0.498475,-0.34925 0.498475,-0.70591 0,-0.22578 -0.07655,-0.41875 -0.221898,-0.5461 -0.174625,-0.15663 -0.429683,-0.2219 -0.79375,-0.2219 -0.250825,0 -0.498475,0.0254 -0.67698,0.0582 v 2.74814 h 0.418747 v -1.17934 h 0.254706 c 0.294922,0 0.429683,0.14182 0.505883,0.51294 0.06914,0.3422 0.134761,0.58632 0.174978,0.6664 h 0.436739 c -0.05468,-0.10583 -0.123825,-0.39335 -0.207434,-0.75741 -0.06562,-0.29457 -0.182033,-0.49107 -0.389466,-0.56762 z"
         style="fill:#231f20;fill-opacity:1;fill-rule:nonzero;stroke:none;stroke-width:0.35277778"
         id="path7461"
         inkscape:connector-curvature="0" />
      <path
         d="m -21.771885,145.91692 h -0.390878 v 1.03152 c 0,0.44627 0.01094,0.80469 0.04375,1.18534 l -0.01094,0.004 c -0.12065,-0.29633 -0.277637,-0.61842 -0.452967,-0.92533 l -0.730603,-1.29505 h -0.460375 v 2.79823 h 0.390878 v -1.04598 c 0,-0.49001 -0.0071,-0.85231 -0.02928,-1.20721 l 0.01482,-0.004 c 0.127706,0.31503 0.295981,0.64382 0.463903,0.94756 l 0.73413,1.30951 h 0.427567 z"
         style="fill:#231f20;fill-opacity:1;fill-rule:nonzero;stroke:none;stroke-width:0.35277778"
         id="path7465"
         inkscape:connector-curvature="0" />
      <path
         d="m -13.082263,147.21373 v -0.96097 c 0.05115,-0.0145 0.153458,-0.0254 0.295981,-0.0254 0.303036,0 0.5588,0.12418 0.5588,0.48578 0,0.29951 -0.219075,0.50059 -0.569737,0.50059 z m 0.778228,0.16439 c 0.281164,-0.10583 0.500239,-0.35066 0.500239,-0.70873 0,-0.22648 -0.07655,-0.42015 -0.222603,-0.54786 -0.175331,-0.15734 -0.431095,-0.22296 -0.796572,-0.22296 -0.251884,0 -0.500239,0.0254 -0.67945,0.0586 v 2.75801 h 0.420158 v -1.18357 h 0.255764 c 0.29598,0 0.431094,0.14252 0.507647,0.51506 0.0695,0.34325 0.135114,0.58808 0.175331,0.66851 h 0.438502 c -0.05468,-0.10583 -0.124177,-0.3944 -0.208138,-0.75988 -0.06597,-0.29598 -0.182739,-0.49318 -0.390878,-0.56974 z"
         style="fill:#231f20;fill-opacity:1;fill-rule:nonzero;stroke:none;stroke-width:0.35277778"
         id="path7469"
         inkscape:connector-curvature="0" />
      <path
         d="m -8.4460578,147.10896 0.9168694,-1.19204 h -0.5150555 l -0.7196667,1.00225 c -0.065617,0.0984 -0.1351139,0.20143 -0.2010833,0.31115 H -8.97593 v -1.3134 h -0.4198056 v 2.79824 H -8.97593 v -1.02764 l 0.2338917,-0.29281 0.7746999,1.32045 h 0.4931834 z"
         style="fill:#231f20;fill-opacity:1;fill-rule:nonzero;stroke:none;stroke-width:0.35277778"
         id="path7473"
         inkscape:connector-curvature="0" />
      <path
         inkscape:connector-curvature="0"
         id="path7475"
         style="fill:#231f20;fill-opacity:1;fill-rule:nonzero;stroke:none;stroke-width:0.35277778"
         d="m -7.1965181,148.71516 h 0.42369 v -2.79824 h -0.42369 z" />
      <path
         d="m -26.603878,152.63487 h -1.099608 v -0.92781 h 0.978958 v -0.35101 h -0.978958 v -0.81068 h 1.037519 v -0.35454 h -1.461205 v 2.79823 h 1.523294 z"
         style="fill:#231f20;fill-opacity:1;fill-rule:nonzero;stroke:none;stroke-width:0.35277778"
         id="path7479"
         inkscape:connector-curvature="0" />
      <path
         d="m -24.671359,152.63099 h -1.077736 v -2.44016 h -0.423686 v 2.79823 h 1.501422 z"
         style="fill:#231f20;fill-opacity:1;fill-rule:nonzero;stroke:none;stroke-width:0.35277778"
         id="path7483"
         inkscape:connector-curvature="0" />
      <path
         d="m -22.771647,152.63487 h -1.099608 v -0.92781 h 0.978958 v -0.35101 h -0.978958 v -0.81068 h 1.037519 v -0.35454 h -1.461205 v 2.79823 h 1.523294 z"
         style="fill:#231f20;fill-opacity:1;fill-rule:nonzero;stroke:none;stroke-width:0.35277778"
         id="path7487"
         inkscape:connector-curvature="0" />
      <path
         d="m -21.390532,151.38286 0.916869,-1.19204 h -0.515055 l -0.719667,1.00225 c -0.06562,0.0984 -0.135114,0.20143 -0.20073,0.31115 h -0.01129 v -1.3134 h -0.419806 v 2.79824 h 0.419806 v -1.02764 l 0.233891,-0.29281 0.7747,1.32045 h 0.493184 z"
         style="fill:#231f20;fill-opacity:1;fill-rule:nonzero;stroke:none;stroke-width:0.35277778"
         id="path7499"
         inkscape:connector-curvature="0" />
      <path
         d="m -18.479047,150.19083 h -1.932517 v 0.3616 h 0.752475 v 2.43663 h 0.423686 v -2.43663 h 0.756356 z"
         style="fill:#231f20;fill-opacity:1;fill-rule:nonzero;stroke:none;stroke-width:0.35277778"
         id="path7503"
         inkscape:connector-curvature="0" />
      <path
         d="m -17.744927,151.48764 v -0.96097 c 0.05115,-0.0145 0.153458,-0.0254 0.295981,-0.0254 0.303036,0 0.5588,0.12418 0.5588,0.48578 0,0.29951 -0.219075,0.50059 -0.569737,0.50059 z m 0.778228,0.16439 c 0.281164,-0.10583 0.500591,-0.35066 0.500591,-0.70873 0,-0.22648 -0.07691,-0.42015 -0.222955,-0.54786 -0.175331,-0.15734 -0.431095,-0.22296 -0.796572,-0.22296 -0.251884,0 -0.500239,0.0254 -0.67945,0.0586 v 2.75801 h 0.420158 v -1.18357 h 0.255764 c 0.29598,0 0.431094,0.14252 0.507647,0.51506 0.0695,0.3436 0.135114,0.58808 0.175331,0.66851 h 0.438502 c -0.05468,-0.10583 -0.124177,-0.3944 -0.208138,-0.75988 -0.06597,-0.29598 -0.182739,-0.49318 -0.390878,-0.56974 z"
         style="fill:#231f20;fill-opacity:1;fill-rule:nonzero;stroke:none;stroke-width:0.35277778"
         id="path7515"
         inkscape:connector-curvature="0" />
      <path
         d="m -12.964083,150.53055 c 0.05468,-0.0109 0.153458,-0.0258 0.285044,-0.0258 0.339725,0 0.573617,0.1718 0.573617,0.51152 0,0.35807 -0.233892,0.55916 -0.621242,0.55916 -0.09843,0 -0.17533,-0.004 -0.237419,-0.0222 z m -0.420158,2.45851 h 0.420158 v -1.09573 c 0.0695,0.0145 0.149931,0.018 0.237419,0.018 0.50412,0 1.044928,-0.23354 1.044928,-0.91334 0,-0.25541 -0.0949,-0.46743 -0.252236,-0.60254 -0.167922,-0.14993 -0.427214,-0.22296 -0.770819,-0.22296 -0.288573,0 -0.511528,0.0257 -0.67945,0.055 z"
         style="fill:#231f20;fill-opacity:1;fill-rule:nonzero;stroke:none;stroke-width:0.35277778"
         id="path7519"
         inkscape:connector-curvature="0" />
      <path
         d="m -10.826955,151.48764 v -0.96097 c 0.05115,-0.0145 0.153458,-0.0254 0.295981,-0.0254 0.303036,0 0.5587995,0.12418 0.5587995,0.48578 0,0.29951 -0.2190745,0.50059 -0.5697365,0.50059 z m 0.778228,0.16439 c 0.2811636,-0.10583 0.5002386,-0.35066 0.5002386,-0.70873 0,-0.22648 -0.076553,-0.42015 -0.2226027,-0.54786 -0.1753306,-0.15734 -0.4310949,-0.22296 -0.7965719,-0.22296 -0.251884,0 -0.500592,0.0254 -0.67945,0.0586 v 2.75801 h 0.420158 v -1.18357 h 0.255764 c 0.29598,0 0.431094,0.14252 0.507647,0.51506 0.069497,0.3436 0.135114,0.58808 0.1753306,0.66851 h 0.4385028 c -0.05468,-0.10583 -0.1241778,-0.3944 -0.2081389,-0.75988 -0.065969,-0.29598 -0.1827389,-0.49318 -0.3908775,-0.56974 z"
         style="fill:#231f20;fill-opacity:1;fill-rule:nonzero;stroke:none;stroke-width:0.35277778"
         id="path7523"
         inkscape:connector-curvature="0" />
      <path
         d="m -7.5499991,152.63487 h -1.0996083 v -0.92781 h 0.9789583 v -0.35101 h -0.9789583 v -0.81068 h 1.0375194 v -0.35454 h -1.4612055 v 2.79823 h 1.5232944 z"
         style="fill:#231f20;fill-opacity:1;fill-rule:nonzero;stroke:none;stroke-width:0.35277778"
         id="path7527"
         inkscape:connector-curvature="0" />
      <path
         d="m -5.116894,150.19083 h -0.3908778 v 1.03152 c 0,0.44627 0.010936,0.80469 0.043745,1.18534 l -0.010936,0.004 c -0.12065,-0.29633 -0.2776361,-0.61842 -0.4529667,-0.92533 l -0.7306028,-1.29505 h -0.4603749 v 2.79823 h 0.3908777 v -1.04598 c 0,-0.49001 -0.00706,-0.85231 -0.029281,-1.20721 l 0.014817,-0.004 c 0.1277056,0.31503 0.2959806,0.64382 0.4639028,0.94756 l 0.7341305,1.30951 h 0.4275667 z"
         style="fill:#231f20;fill-opacity:1;fill-rule:nonzero;stroke:none;stroke-width:0.35277778"
         id="path7539"
         inkscape:connector-curvature="0" />
      <path
         d="M 2.0095698,150.19083 H 1.618692 v 1.03152 c 0,0.44627 0.010936,0.80469 0.043745,1.18534 l -0.010936,0.004 c -0.12065,-0.29633 -0.2776361,-0.61842 -0.4529667,-0.92533 L 0.46793095,150.19083 H 0.00755596 v 2.79823 h 0.39087776 v -1.04598 c 0,-0.49001 -0.007056,-0.85231 -0.0292806,-1.20721 l 0.0148167,-0.004 c 0.12770555,0.31503 0.29598054,0.64382 0.46390276,0.94756 l 0.73413052,1.30951 h 0.4275667 z"
         style="fill:#231f20;fill-opacity:1;fill-rule:nonzero;stroke:none;stroke-width:0.35277778"
         id="path7543"
         inkscape:connector-curvature="0" />
      <path
         inkscape:connector-curvature="0"
         id="path7545"
         style="fill:#231f20;fill-opacity:1;fill-rule:nonzero;stroke:none;stroke-width:0.35277778"
         d="m 2.5941339,152.98906 h 0.42368 v -2.79823 h -0.42368 z" />
      <path
         inkscape:connector-curvature="0"
         id="path7547"
         style="fill:#231f20;fill-opacity:1;fill-rule:nonzero;stroke:none;stroke-width:0.35277778"
         d="m -26.194297,157.26296 h 0.42368 v -2.79823 h -0.42368 z" />
      <path
         d="m -21.594439,154.46438 h -1.932517 v 0.3616 h 0.752475 v 2.43663 h 0.423686 v -2.43663 h 0.756356 z"
         style="fill:#231f20;fill-opacity:1;fill-rule:nonzero;stroke:none;stroke-width:0.35277778"
         id="path7551"
         inkscape:connector-curvature="0" />
      <path
         d="m -19.756818,156.90842 h -1.099608 v -0.92781 h 0.978958 v -0.35066 h -0.978958 v -0.81103 h 1.037519 v -0.35454 h -1.461205 v 2.79823 h 1.523294 z"
         style="fill:#231f20;fill-opacity:1;fill-rule:nonzero;stroke:none;stroke-width:0.35277778"
         id="path7555"
         inkscape:connector-curvature="0" />
      <path
         d="m -16.819944,154.46438 h -0.529872 l -0.405342,1.22731 c -0.109714,0.34714 -0.197203,0.66499 -0.2667,0.9645 h -0.01094 c -0.0695,-0.30692 -0.153458,-0.61736 -0.255764,-0.96062 l -0.394405,-1.23119 h -0.526345 l -0.189794,2.79823 h 0.394405 l 0.06209,-1.15429 c 0.02222,-0.39087 0.0441,-0.8329 0.05115,-1.18004 h 0.01094 c 0.0695,0.3362 0.168275,0.70132 0.281517,1.0668 l 0.383469,1.24213 h 0.317853 l 0.41663,-1.26788 c 0.11677,-0.35419 0.226484,-0.71226 0.310445,-1.04105 h 0.01094 c -0.0035,0.34714 0.01834,0.77823 0.03669,1.15817 l 0.06209,1.17616 h 0.408869 z"
         style="fill:#231f20;fill-opacity:1;fill-rule:nonzero;stroke:none;stroke-width:0.35277778"
         id="path7567"
         inkscape:connector-curvature="0" />
      <path
         d="m -9.9499494,146.01782 c -0.1185336,-0.061 -0.3157366,-0.12559 -0.5774976,-0.12559 -0.545041,0 -0.89288,0.32632 -0.89288,0.76024 0,0.37288 0.276225,0.62053 0.685094,0.78563 0.32632,0.13618 0.46602,0.2794 0.46602,0.51259 0,0.24765 -0.182739,0.41592 -0.509059,0.41592 -0.22613,0 -0.44838,-0.0716 -0.595488,-0.16122 l -0.09313,0.34784 c 0.132645,0.0896 0.405342,0.16546 0.663575,0.16546 0.616656,0 0.957439,-0.34467 0.957439,-0.80363 0,-0.37677 -0.211667,-0.61701 -0.652639,-0.81068 -0.347839,-0.15064 -0.502355,-0.26529 -0.502355,-0.49848 0,-0.17568 0.136525,-0.36583 0.462844,-0.36583 0.225778,0 0.397933,0.0716 0.487539,0.12206 z"
         style="fill:#231f20;fill-opacity:1;fill-rule:nonzero;stroke:none;stroke-width:0.35277778"
         id="path7571"
         inkscape:connector-curvature="0" />
    </g>
  </g>
</svg>
