<svg width="255" height="76" viewBox="0 0 255 76" fill="none" xmlns="http://www.w3.org/2000/svg">
<path d="M254.993 21.9191V25.3705H246.959V29.887H253.116V33.207H246.959V37.8134H255V41.2648H242.393V21.9191H254.993ZM227.152 32.4116C227.334 32.7505 227.502 33.1032 227.671 33.4629C227.839 33.8294 227.993 34.196 228.147 34.5764C228.301 34.1891 228.462 33.8087 228.63 33.4421C228.798 33.0755 228.973 32.7228 229.155 32.3701L234.184 22.59C234.275 22.424 234.366 22.2926 234.464 22.2027C234.555 22.1128 234.661 22.0367 234.78 21.9952C234.899 21.9537 235.032 21.933 235.179 21.933H239.164V41.2648H235.158V30.136C235.158 29.5965 235.186 29.0155 235.242 28.3861L230.052 38.3321C229.891 38.6434 229.674 38.8785 229.401 39.0376C229.127 39.1967 228.812 39.2728 228.462 39.2728H227.846C227.495 39.2728 227.187 39.1967 226.914 39.0376C226.641 38.8785 226.424 38.6434 226.263 38.3321L221.045 28.3723C221.08 28.6835 221.108 28.9879 221.129 29.2922C221.15 29.5965 221.157 29.8801 221.157 30.136V41.2648H217.151V21.933H221.136C221.283 21.933 221.416 21.9537 221.528 21.9952C221.647 22.0367 221.752 22.1128 221.843 22.2027C221.934 22.2926 222.025 22.424 222.116 22.59L227.152 32.4116ZM202.968 33.864H208.319L206.519 28.566C206.4 28.227 206.266 27.8328 206.112 27.3763C205.958 26.9198 205.797 26.4287 205.643 25.8961C205.496 26.4356 205.349 26.9336 205.202 27.397C205.048 27.8605 204.908 28.2547 204.775 28.5936L202.968 33.864ZM215.554 41.2578H212.031C211.639 41.2578 211.316 41.1679 211.057 40.9812C210.805 40.8013 210.623 40.5662 210.525 40.2895L209.369 36.9212H201.924L200.768 40.2895C200.677 40.5385 200.502 40.7598 200.243 40.9604C199.984 41.161 199.662 41.2578 199.291 41.2578H195.74L203.325 21.9122H207.975L215.554 41.2578ZM185.815 31.0144C186.431 31.0144 186.964 30.9314 187.398 30.7792C187.832 30.6271 188.189 30.4127 188.462 30.136C188.743 29.8593 188.939 29.5412 189.065 29.1746C189.191 28.808 189.254 28.4138 189.254 27.985C189.254 27.1342 188.974 26.4702 188.413 25.993C187.853 25.5157 186.985 25.2737 185.808 25.2737H183.98V31.0144H185.815ZM183.987 41.2648H179.441V21.9191H185.815C187.23 21.9191 188.441 22.0575 189.443 22.348C190.445 22.6385 191.257 23.0396 191.887 23.5514C192.518 24.0633 192.973 24.6719 193.26 25.3705C193.547 26.0691 193.687 26.8299 193.687 27.653C193.687 28.2824 193.603 28.8772 193.435 29.4305C193.267 29.9908 193.015 30.5026 192.679 30.9729C192.343 31.4432 191.929 31.8721 191.439 32.2456C190.949 32.6191 190.389 32.9234 189.751 33.1585C190.052 33.3107 190.339 33.4974 190.606 33.7188C190.872 33.9401 191.096 34.2099 191.299 34.528L195.466 41.2578H191.355C190.592 41.2578 190.045 40.9743 189.716 40.4071L186.466 34.7909C186.326 34.5419 186.158 34.369 185.962 34.2583C185.766 34.1545 185.493 34.0992 185.15 34.0992H183.987V41.2648ZM177.074 21.9191V25.3705H169.033V30.2674H175.729V33.7326H169.033V41.2578H164.46V21.9191H177.074ZM146.537 21.9191C146.733 21.9191 146.901 21.926 147.034 21.9468C147.167 21.9675 147.286 21.9952 147.398 22.0436C147.503 22.0921 147.608 22.1612 147.706 22.2511C147.804 22.341 147.917 22.4586 148.043 22.6108L157.344 34.2237C157.309 33.8502 157.281 33.4905 157.267 33.1378C157.246 32.785 157.239 32.46 157.239 32.1487V21.9122H161.245V41.2578H158.878C158.528 41.2578 158.233 41.2025 157.988 41.0988C157.743 40.995 157.512 40.7944 157.288 40.5178L148.05 28.9948C148.078 29.3337 148.099 29.6588 148.12 29.9838C148.141 30.3089 148.148 30.6132 148.148 30.8968V41.2648H144.141V21.9191H146.537ZM140.513 41.2578H135.94V21.9191H140.513V41.2578ZM121.365 33.864H126.716L124.916 28.566C124.796 28.227 124.663 27.8328 124.509 27.3763C124.355 26.9198 124.194 26.4287 124.04 25.8961C123.9 26.4356 123.746 26.9336 123.599 27.397C123.445 27.8605 123.305 28.2547 123.172 28.5936L121.365 33.864ZM133.951 41.2578H130.428C130.035 41.2578 129.713 41.1679 129.454 40.9812C129.202 40.8013 129.02 40.5662 128.922 40.2895L127.766 36.9212H120.321L119.165 40.2895C119.074 40.5385 118.899 40.7598 118.64 40.9604C118.381 41.161 118.066 41.2578 117.687 41.2578H114.136L121.722 21.9122H126.372L133.951 41.2578ZM100.493 32.4116C100.675 32.7505 100.843 33.1032 101.011 33.4629C101.179 33.8294 101.333 34.196 101.487 34.5764C101.641 34.1891 101.802 33.8087 101.971 33.4421C102.139 33.0755 102.314 32.7228 102.496 32.3701L107.525 22.59C107.616 22.424 107.707 22.2926 107.805 22.2027C107.896 22.1128 108.001 22.0367 108.12 21.9952C108.239 21.9537 108.372 21.933 108.519 21.933H112.505V41.2648H108.498V30.136C108.498 29.5965 108.526 29.0155 108.582 28.3861L103.392 38.3321C103.231 38.6434 103.014 38.8785 102.741 39.0376C102.468 39.1967 102.153 39.2728 101.802 39.2728H101.186C100.836 39.2728 100.528 39.1967 100.255 39.0376C99.9815 38.8785 99.7643 38.6434 99.6032 38.3321L94.3853 28.3723C94.4203 28.6835 94.4483 28.9879 94.4694 29.2922C94.4904 29.5965 94.4974 29.8801 94.4974 30.136V41.2648H90.4911V21.933H94.4764C94.6234 21.933 94.7565 21.9537 94.8686 21.9952C94.9876 22.0367 95.0927 22.1128 95.1837 22.2027C95.2748 22.2926 95.3659 22.424 95.4569 22.59L100.493 32.4116Z" fill="#241F21"/>
<path fill-rule="evenodd" clip-rule="evenodd" d="M46.8144 26.7746L45.5467 28.0265C45.3646 28.2132 45.0985 28.2616 44.8533 28.1648C44.6082 28.0679 44.4611 27.8466 44.4611 27.5838V19.9479C44.4611 19.775 44.5241 19.6228 44.6502 19.5052L64.3313 0.180357C64.4574 0.0558588 64.6115 -0.006397 64.7866 0.000519561C64.9617 0.000519561 65.1158 0.0697055 65.2348 0.194204L78.5844 13.9789C78.7034 14.0965 78.7595 14.2417 78.7595 14.4147V61.5718C78.7595 61.7447 78.6964 61.8899 78.5704 62.0144L64.5975 75.813C64.4154 75.9997 64.1492 76.0482 63.9041 75.9513C63.6589 75.8545 63.5119 75.6331 63.5119 75.3703V10.6589C63.5119 10.486 63.5749 10.3408 63.701 10.2163L64.3383 9.58689C64.5835 9.34481 64.9897 9.34481 65.2348 9.58689L65.8722 10.2163C65.9983 10.3408 66.0543 10.486 66.0543 10.6589V69.097C66.0543 69.3529 66.2014 69.5812 66.4465 69.678C66.6917 69.7748 66.9508 69.7264 67.1399 69.5397L76.0349 60.7556C76.161 60.6311 76.224 60.4859 76.224 60.313V15.6666C76.224 15.5006 76.168 15.3553 76.0489 15.2377L65.2348 3.97064C65.1158 3.84614 64.9617 3.77698 64.7866 3.77698C64.6115 3.77698 64.4574 3.8323 64.3313 3.95679L47.1997 20.771C47.0736 20.8955 47.0105 21.0407 47.0105 21.2136V26.3388C47.0035 26.5048 46.9405 26.657 46.8144 26.7746ZM44.4611 44.5225V57.8022C44.4611 57.9752 44.5241 58.1204 44.6502 58.2449L55.4503 68.9102C55.6324 69.097 55.8986 69.1454 56.1437 69.0486C56.3888 68.9518 56.5359 68.7304 56.5359 68.4676V24.4575C56.5359 24.2016 56.3888 23.9803 56.1437 23.8765C55.8986 23.7797 55.6394 23.8281 55.4503 24.0148L39.8385 39.4319C39.7124 39.5564 39.5653 39.6186 39.3902 39.6186C39.2151 39.6186 39.0611 39.5564 38.942 39.4319L23.3302 24.0148C23.1481 23.835 22.8819 23.7797 22.6368 23.8765C22.3916 23.9733 22.2446 24.1947 22.2446 24.4575V68.4676C22.2446 68.7235 22.3916 68.9518 22.6368 69.0486C22.8819 69.1454 23.1411 69.097 23.3302 68.9102L34.1303 58.2449C34.2563 58.1204 34.3124 57.9752 34.3124 57.8022V44.5225C34.3124 44.3495 34.2493 44.2043 34.1303 44.0798L32.8626 42.8279C32.6805 42.6481 32.4143 42.5927 32.1692 42.6896C31.924 42.7864 31.7769 43.0077 31.7769 43.2706V56.5504C31.7769 56.7233 31.7139 56.8685 31.5948 56.993L25.8796 62.6369C25.6975 62.8237 25.4314 62.8721 25.1862 62.7753C24.9411 62.6784 24.794 62.4571 24.794 62.1943V30.7239C24.794 30.4611 24.9411 30.2397 25.1862 30.1429C25.4244 30.0461 25.6905 30.0945 25.8796 30.2813L38.956 43.1945C39.0821 43.319 39.2292 43.3812 39.4043 43.3812C39.5794 43.3812 39.7264 43.319 39.8525 43.1945L52.9289 30.2813C53.111 30.1014 53.3771 30.0461 53.6223 30.1429C53.8674 30.2397 54.0145 30.4611 54.0145 30.7239V62.1943C54.0145 62.4502 53.8674 62.6715 53.6223 62.7753C53.3842 62.8721 53.118 62.8237 52.9289 62.6369L47.2137 56.993C47.0876 56.8685 47.0246 56.7233 47.0246 56.5504V43.2706C47.0246 43.0147 46.8775 42.7933 46.6323 42.6896C46.3872 42.5927 46.1281 42.6411 45.9389 42.8279L44.6712 44.0798C44.5241 44.2043 44.4611 44.3495 44.4611 44.5225ZM31.945 26.7746L33.2128 28.0265C33.3949 28.2132 33.661 28.2616 33.9061 28.1648C34.1513 28.0679 34.2984 27.8466 34.2984 27.5838V19.9479C34.2984 19.775 34.2353 19.6228 34.1093 19.5052L14.4281 0.180357C14.3021 0.0558588 14.148 -0.006397 13.9729 0.000519561C13.7978 0.000519561 13.6437 0.0697055 13.5246 0.194204L0.175099 13.9789C0.0560316 14.0965 0 14.2417 0 14.4147V61.5718C0 61.7447 0.0630386 61.8899 0.18911 62.0144L14.162 75.813C14.3441 75.9997 14.6103 76.0482 14.8554 75.9513C15.1005 75.8545 15.2476 75.6331 15.2476 75.3703V10.6589C15.2476 10.486 15.1846 10.3408 15.0655 10.2163L14.4281 9.58689C14.183 9.34481 13.7768 9.34481 13.5316 9.58689L12.8943 10.2163C12.7682 10.3408 12.7052 10.486 12.7052 10.6589V69.097C12.7052 69.3529 12.5581 69.5742 12.3129 69.678C12.0748 69.7748 11.8087 69.7264 11.6196 69.5397L2.72454 60.7556C2.59847 60.6311 2.53543 60.4859 2.53543 60.313V15.6666C2.53543 15.5006 2.59147 15.3553 2.71053 15.2377L13.5176 3.97064C13.6367 3.84614 13.7908 3.77698 13.9659 3.77698C14.141 3.77698 14.2951 3.8323 14.4211 3.95679L31.5528 20.771C31.6789 20.8955 31.7419 21.0407 31.7419 21.2136V26.3388C31.7559 26.5048 31.819 26.657 31.945 26.7746Z" fill="#F26425"/>
<path d="M216.99 53.6592C216.99 54.0812 217.088 54.4131 217.284 54.6414C217.48 54.8765 217.781 54.9872 218.18 54.9872C218.474 54.9872 218.748 54.9181 219.007 54.7797C219.266 54.6414 219.504 54.4546 219.721 54.2126V50.0834H220.716V55.6858H220.12C219.98 55.6858 219.889 55.6166 219.854 55.4783L219.777 54.8766C219.532 55.1463 219.252 55.3607 218.951 55.5267C218.642 55.6927 218.292 55.7757 217.9 55.7757C217.592 55.7757 217.319 55.7273 217.081 55.6235C216.842 55.5198 216.646 55.3815 216.485 55.1947C216.324 55.008 216.205 54.7866 216.128 54.5238C216.051 54.261 216.009 53.9705 216.009 53.6523V50.0765H216.99V53.6592ZM213.754 51.0102C213.712 51.0932 213.642 51.1347 213.544 51.1347C213.488 51.1347 213.425 51.114 213.354 51.0725C213.284 51.031 213.2 50.9894 213.095 50.9341C212.99 50.8857 212.871 50.8373 212.731 50.7958C212.591 50.7543 212.423 50.7335 212.227 50.7335C212.059 50.7335 211.905 50.7543 211.772 50.7958C211.639 50.8373 211.526 50.8995 211.428 50.9687C211.33 51.0379 211.26 51.1278 211.211 51.2246C211.162 51.3215 211.134 51.4321 211.134 51.5428C211.134 51.688 211.176 51.8056 211.26 51.9024C211.344 51.9993 211.456 52.0823 211.589 52.1514C211.73 52.2206 211.884 52.2828 212.059 52.3382C212.234 52.3935 212.416 52.4488 212.598 52.5111C212.78 52.5733 212.962 52.6425 213.137 52.7117C213.312 52.7878 213.467 52.8777 213.607 52.9883C213.747 53.099 213.859 53.2304 213.943 53.3964C214.027 53.5555 214.069 53.7492 214.069 53.9774C214.069 54.2333 214.02 54.4754 213.929 54.6898C213.838 54.9111 213.698 55.0979 213.516 55.257C213.333 55.416 213.109 55.5475 212.843 55.6374C212.577 55.7273 212.269 55.7757 211.926 55.7757C211.533 55.7757 211.169 55.7135 210.847 55.582C210.525 55.4575 210.252 55.2916 210.028 55.091L210.266 54.7175C210.294 54.6691 210.329 54.6345 210.371 54.6068C210.413 54.5791 210.469 54.5653 210.532 54.5653C210.595 54.5653 210.672 54.593 210.742 54.6414C210.819 54.6898 210.91 54.752 211.015 54.8143C211.12 54.8765 211.253 54.9319 211.4 54.9872C211.554 55.0356 211.744 55.0633 211.968 55.0633C212.164 55.0633 212.332 55.0356 212.479 54.9872C212.626 54.9388 212.745 54.8696 212.843 54.7866C212.941 54.7036 213.011 54.6068 213.06 54.4961C213.109 54.3855 213.13 54.2679 213.13 54.1434C213.13 53.9912 213.088 53.8598 213.004 53.7561C212.92 53.6523 212.808 53.5693 212.668 53.4933C212.528 53.4241 212.374 53.3618 212.199 53.3065C212.024 53.2512 211.842 53.1958 211.653 53.1405C211.47 53.0783 211.288 53.016 211.106 52.9399C210.931 52.8638 210.77 52.767 210.63 52.6563C210.49 52.5457 210.385 52.4004 210.301 52.2344C210.217 52.0684 210.175 51.8609 210.175 51.6258C210.175 51.4114 210.217 51.2039 210.308 51.0102C210.399 50.8096 210.525 50.6367 210.7 50.4914C210.868 50.3393 211.085 50.2217 211.33 50.1387C211.582 50.0488 211.863 50.0073 212.185 50.0073C212.556 50.0073 212.892 50.0626 213.193 50.1802C213.488 50.2978 213.747 50.4569 213.964 50.6575L213.754 51.0102ZM204.396 52.4073C204.396 52.2967 204.417 52.186 204.459 52.0823C204.501 51.9785 204.565 51.8886 204.642 51.8194C204.719 51.7434 204.803 51.688 204.908 51.6396C205.006 51.5981 205.118 51.5704 205.23 51.5704C205.349 51.5704 205.454 51.5912 205.559 51.6396C205.664 51.6811 205.755 51.7434 205.825 51.8194C205.902 51.8955 205.958 51.9785 206.007 52.0823C206.049 52.186 206.077 52.2967 206.077 52.4073C206.077 52.518 206.056 52.6218 206.007 52.7255C205.965 52.8223 205.902 52.9123 205.825 52.9883C205.748 53.0644 205.664 53.1267 205.559 53.1682C205.454 53.2097 205.342 53.2304 205.23 53.2304C205.118 53.2304 205.013 53.2097 204.908 53.1682C204.81 53.1267 204.719 53.0644 204.642 52.9883C204.565 52.9123 204.501 52.8293 204.459 52.7255C204.424 52.6218 204.396 52.518 204.396 52.4073ZM197.995 50.7197C197.512 50.7197 197.133 50.858 196.86 51.1347C196.587 51.4114 196.412 51.7918 196.342 52.2759H199.431C199.431 52.0477 199.396 51.8402 199.333 51.6465C199.27 51.4529 199.178 51.2938 199.052 51.1555C198.926 51.0171 198.779 50.9134 198.604 50.8373C198.429 50.7543 198.226 50.7197 197.995 50.7197ZM197.974 49.9935C198.31 49.9935 198.625 50.0488 198.912 50.1595C199.199 50.2701 199.452 50.4361 199.655 50.6436C199.865 50.858 200.026 51.1209 200.145 51.4321C200.264 51.7434 200.32 52.0961 200.32 52.4973C200.32 52.6494 200.306 52.7532 200.271 52.8085C200.236 52.8569 200.173 52.8846 200.082 52.8846H196.307C196.314 53.2373 196.363 53.5486 196.454 53.8114C196.545 54.0742 196.664 54.2886 196.825 54.4685C196.979 54.6414 197.168 54.7728 197.385 54.8627C197.603 54.9457 197.848 54.9941 198.114 54.9941C198.366 54.9941 198.583 54.9665 198.765 54.9111C198.947 54.8558 199.101 54.7936 199.235 54.7244C199.368 54.6552 199.473 54.593 199.564 54.5376C199.655 54.4823 199.725 54.4546 199.788 54.4546C199.872 54.4546 199.935 54.4892 199.977 54.5515L200.257 54.9111C200.131 55.0564 199.984 55.1878 199.816 55.2915C199.648 55.4022 199.459 55.4921 199.263 55.5613C199.066 55.6305 198.863 55.6858 198.653 55.7204C198.443 55.755 198.24 55.7757 198.03 55.7757C197.638 55.7757 197.28 55.7135 196.944 55.582C196.615 55.4506 196.328 55.257 196.09 55.008C195.852 54.7521 195.662 54.4408 195.522 54.0742C195.389 53.7007 195.319 53.2719 195.319 52.7878C195.319 52.4004 195.382 52.0339 195.501 51.6949C195.62 51.356 195.796 51.0586 196.027 50.8096C196.258 50.5606 196.531 50.367 196.86 50.2217C197.196 50.0626 197.561 49.9935 197.974 49.9935ZM190.452 55.6858V50.0834H191.026C191.131 50.0834 191.208 50.1041 191.25 50.1456C191.292 50.1871 191.32 50.2563 191.334 50.3531L191.404 51.2246C191.6 50.8304 191.838 50.526 192.125 50.3047C192.413 50.0834 192.749 49.9796 193.127 49.9796C193.281 49.9796 193.428 49.9935 193.554 50.028C193.68 50.0626 193.799 50.111 193.905 50.1733L193.778 50.9064C193.75 50.9964 193.694 51.0448 193.603 51.0448C193.554 51.0448 193.47 51.024 193.365 50.9894C193.253 50.9549 193.106 50.941 192.91 50.941C192.56 50.941 192.273 51.0379 192.041 51.2384C191.81 51.439 191.614 51.7295 191.453 52.1099V55.6789H190.452V55.6858ZM185.591 55.0841C185.766 55.0841 185.927 55.0633 186.074 55.0287C186.221 54.9941 186.361 54.9457 186.487 54.8766C186.613 54.8143 186.739 54.7382 186.859 54.6414C186.978 54.5515 187.09 54.4408 187.202 54.3232V53.1682C186.739 53.1682 186.354 53.1958 186.032 53.2512C185.71 53.3065 185.451 53.3826 185.248 53.4794C185.044 53.5693 184.897 53.68 184.806 53.8045C184.715 53.929 184.666 54.0742 184.666 54.2264C184.666 54.3786 184.687 54.5031 184.736 54.6137C184.785 54.7175 184.848 54.8074 184.932 54.8766C185.016 54.9457 185.115 54.9941 185.227 55.0287C185.339 55.0633 185.458 55.0841 185.591 55.0841ZM187.734 55.6858C187.636 55.6858 187.559 55.672 187.496 55.6443C187.433 55.6166 187.398 55.5544 187.377 55.4576L187.265 54.9388C187.118 55.0702 186.971 55.1878 186.831 55.2915C186.69 55.3953 186.536 55.4852 186.382 55.5544C186.228 55.6235 186.06 55.6789 185.885 55.7204C185.71 55.755 185.507 55.7757 185.297 55.7757C185.073 55.7757 184.869 55.7411 184.68 55.6858C184.484 55.6235 184.323 55.5336 184.176 55.4091C184.036 55.2846 183.924 55.1325 183.84 54.9457C183.756 54.759 183.714 54.5376 183.714 54.2817C183.714 54.0604 183.777 53.846 183.896 53.6385C184.022 53.431 184.218 53.2512 184.491 53.0921C184.764 52.933 185.122 52.8016 185.57 52.6978C186.011 52.5941 186.557 52.5457 187.202 52.5457V52.1099C187.202 51.6742 187.111 51.3422 186.922 51.114C186.732 50.8857 186.452 50.775 186.081 50.775C185.836 50.775 185.633 50.8027 185.472 50.8649C185.304 50.9272 185.164 50.9964 185.037 51.0725C184.918 51.1485 184.813 51.2177 184.722 51.2799C184.638 51.3422 184.547 51.3699 184.463 51.3699C184.393 51.3699 184.337 51.3491 184.288 51.3145C184.239 51.2799 184.197 51.2384 184.169 51.1831L183.987 50.8649C184.302 50.5675 184.638 50.3462 185.002 50.194C185.367 50.0488 185.766 49.9727 186.207 49.9727C186.522 49.9727 186.809 50.0211 187.055 50.1249C187.3 50.2286 187.51 50.3739 187.678 50.5537C187.846 50.7405 187.972 50.9618 188.056 51.2246C188.14 51.4875 188.182 51.771 188.182 52.0892V55.6858H187.734ZM173.929 50.0834H174.714C174.798 50.0834 174.861 50.1041 174.917 50.1456C174.966 50.1871 175.001 50.2355 175.022 50.2909L176.107 53.8944C176.135 54.0258 176.163 54.1572 176.191 54.2748C176.22 54.3993 176.241 54.5238 176.255 54.6483C176.283 54.5238 176.318 54.3993 176.353 54.2748C176.388 54.1503 176.43 54.0258 176.472 53.8944L177.669 50.2632C177.69 50.2079 177.718 50.1595 177.767 50.1249C177.816 50.0903 177.872 50.0695 177.942 50.0695H178.377C178.454 50.0695 178.517 50.0903 178.559 50.1249C178.608 50.1595 178.643 50.2079 178.657 50.2632L179.827 53.8944C179.869 54.0258 179.904 54.1503 179.939 54.2748C179.974 54.3993 180.002 54.5238 180.03 54.6483C180.051 54.5238 180.072 54.3993 180.1 54.2679C180.128 54.1365 180.163 54.012 180.198 53.8944L181.304 50.2909C181.325 50.2286 181.36 50.1802 181.409 50.1456C181.458 50.1041 181.522 50.0903 181.592 50.0903H182.341L180.506 55.6927H179.714C179.616 55.6927 179.553 55.6305 179.511 55.506L178.258 51.7088C178.23 51.6258 178.202 51.5359 178.188 51.4529C178.167 51.3629 178.153 51.2799 178.132 51.1969C178.111 51.2799 178.097 51.3699 178.076 51.4529C178.055 51.5428 178.034 51.6258 178.006 51.7157L176.731 55.5129C176.689 55.6374 176.612 55.6996 176.5 55.6996H175.75L173.929 50.0834ZM171.45 55.7757C171.002 55.7757 170.658 55.6512 170.42 55.4022C170.182 55.1532 170.056 54.8005 170.056 54.3371V50.9064H169.37C169.307 50.9064 169.258 50.8857 169.216 50.8511C169.174 50.8165 169.153 50.7612 169.153 50.692V50.2978L170.084 50.1802L170.315 48.4511C170.322 48.3957 170.35 48.3473 170.385 48.3127C170.427 48.2781 170.476 48.2574 170.539 48.2574H171.044V50.1871H172.669V50.8995H171.044V54.261C171.044 54.4961 171.1 54.6691 171.219 54.7866C171.338 54.8973 171.485 54.9596 171.667 54.9596C171.772 54.9596 171.863 54.9457 171.94 54.9181C172.017 54.8904 172.08 54.8627 172.136 54.8281C172.192 54.7936 172.241 54.7659 172.283 54.7382C172.325 54.7106 172.353 54.6967 172.388 54.6967C172.437 54.6967 172.486 54.7313 172.528 54.7935L172.823 55.2639C172.647 55.423 172.444 55.5475 172.199 55.6374C171.954 55.7273 171.702 55.7757 171.45 55.7757ZM165.412 55.6858V50.9203L164.789 50.8511C164.712 50.8304 164.649 50.8027 164.6 50.7612C164.551 50.7197 164.523 50.6644 164.523 50.5952V50.194H165.419V49.6545C165.419 49.3364 165.468 49.0459 165.559 48.7969C165.651 48.5479 165.784 48.3404 165.952 48.1675C166.12 47.9946 166.323 47.8701 166.561 47.7802C166.799 47.6902 167.065 47.6487 167.367 47.6487C167.619 47.6487 167.857 47.6833 168.074 47.7594L168.053 48.2505C168.046 48.3266 168.018 48.3681 167.955 48.3819C167.892 48.3957 167.808 48.4027 167.703 48.4027H167.528C167.36 48.4027 167.198 48.4234 167.058 48.4718C166.918 48.5133 166.799 48.5894 166.694 48.6862C166.596 48.7831 166.519 48.9145 166.463 49.0805C166.407 49.2396 166.379 49.4401 166.379 49.6822V50.194H168.018V50.9064H166.407V55.6858H165.412ZM160.496 54.9941C161.056 54.9941 161.476 54.8074 161.749 54.4339C162.022 54.0604 162.163 53.5486 162.163 52.8846C162.163 52.2206 162.022 51.6949 161.749 51.3214C161.476 50.9479 161.056 50.7612 160.496 50.7612C160.208 50.7612 159.963 50.8096 159.753 50.9064C159.543 51.0033 159.368 51.1416 159.228 51.3214C159.088 51.5013 158.983 51.7226 158.913 51.9854C158.843 52.2483 158.808 52.5457 158.808 52.8777C158.808 53.2097 158.843 53.5071 158.913 53.7699C158.983 54.0327 159.088 54.2541 159.228 54.427C159.368 54.6068 159.543 54.7451 159.753 54.842C159.963 54.9457 160.215 54.9941 160.496 54.9941ZM160.496 49.9935C160.909 49.9935 161.287 50.0626 161.616 50.201C161.952 50.3393 162.233 50.533 162.471 50.782C162.702 51.0309 162.884 51.3353 163.01 51.688C163.136 52.0408 163.199 52.4419 163.199 52.8846C163.199 53.3273 163.136 53.7215 163.01 54.0811C162.884 54.4339 162.702 54.7382 162.471 54.9872C162.24 55.2362 161.952 55.4299 161.616 55.5613C161.28 55.6927 160.909 55.7619 160.496 55.7619C160.082 55.7619 159.704 55.6927 159.375 55.5613C159.039 55.423 158.759 55.2362 158.521 54.9872C158.282 54.7382 158.107 54.4339 157.974 54.0811C157.848 53.7284 157.785 53.3273 157.785 52.8846C157.785 52.4419 157.848 52.0477 157.974 51.688C158.1 51.3353 158.282 51.0309 158.521 50.782C158.759 50.533 159.039 50.3393 159.375 50.201C159.711 50.0626 160.082 49.9935 160.496 49.9935ZM155.824 51.0102C155.782 51.0932 155.712 51.1347 155.614 51.1347C155.558 51.1347 155.495 51.114 155.425 51.0725C155.355 51.031 155.271 50.9894 155.166 50.9341C155.061 50.8857 154.941 50.8373 154.794 50.7958C154.654 50.7543 154.486 50.7335 154.29 50.7335C154.122 50.7335 153.968 50.7543 153.835 50.7958C153.702 50.8373 153.583 50.8995 153.492 50.9687C153.394 51.0448 153.324 51.1278 153.275 51.2246C153.226 51.3215 153.197 51.4321 153.197 51.5428C153.197 51.688 153.24 51.8056 153.324 51.9024C153.408 51.9993 153.52 52.0823 153.653 52.1514C153.793 52.2206 153.947 52.2828 154.122 52.3382C154.297 52.3935 154.479 52.4488 154.661 52.5111C154.843 52.5733 155.026 52.6425 155.201 52.7117C155.376 52.7878 155.53 52.8777 155.67 52.9883C155.81 53.099 155.922 53.2304 156.006 53.3964C156.09 53.5555 156.132 53.7492 156.132 53.9774C156.132 54.2333 156.083 54.4754 155.992 54.6898C155.901 54.9111 155.761 55.0979 155.579 55.257C155.397 55.416 155.173 55.5475 154.906 55.6374C154.64 55.7273 154.339 55.7757 153.989 55.7757C153.597 55.7757 153.233 55.7135 152.91 55.582C152.588 55.4575 152.315 55.2916 152.091 55.091L152.329 54.7175C152.357 54.6691 152.392 54.6345 152.434 54.6068C152.476 54.5791 152.532 54.5653 152.595 54.5653C152.658 54.5653 152.735 54.593 152.805 54.6414C152.882 54.6898 152.973 54.752 153.078 54.8143C153.184 54.8765 153.317 54.9319 153.464 54.9872C153.618 55.0356 153.807 55.0633 154.031 55.0633C154.227 55.0633 154.395 55.0356 154.542 54.9872C154.689 54.9388 154.808 54.8696 154.906 54.7866C155.005 54.7036 155.075 54.6068 155.124 54.4961C155.173 54.3855 155.194 54.2679 155.194 54.1434C155.194 53.9912 155.152 53.8598 155.068 53.7561C154.984 53.6523 154.871 53.5693 154.731 53.4933C154.591 53.4241 154.437 53.3618 154.262 53.3065C154.087 53.2512 153.905 53.1958 153.716 53.1405C153.534 53.0783 153.352 53.016 153.169 52.9399C152.994 52.8638 152.833 52.767 152.693 52.6563C152.553 52.5457 152.448 52.4004 152.364 52.2344C152.28 52.0684 152.238 51.8609 152.238 51.6258C152.238 51.4114 152.28 51.2039 152.371 51.0102C152.462 50.8096 152.588 50.6367 152.763 50.4914C152.938 50.3393 153.148 50.2217 153.394 50.1387C153.646 50.0488 153.926 50.0073 154.248 50.0073C154.619 50.0073 154.955 50.0626 155.257 50.1802C155.551 50.2978 155.81 50.4569 156.027 50.6575L155.824 51.0102ZM146.474 52.4073C146.474 52.2967 146.495 52.186 146.537 52.0823C146.579 51.9785 146.642 51.8886 146.719 51.8194C146.796 51.7434 146.88 51.688 146.985 51.6396C147.083 51.5981 147.195 51.5704 147.307 51.5704C147.426 51.5704 147.531 51.5912 147.636 51.6396C147.741 51.6811 147.832 51.7434 147.903 51.8194C147.98 51.8955 148.036 51.9785 148.085 52.0823C148.127 52.186 148.155 52.2967 148.155 52.4073C148.155 52.518 148.134 52.6218 148.085 52.7255C148.043 52.8223 147.98 52.9123 147.903 52.9883C147.825 53.0644 147.741 53.1267 147.636 53.1682C147.531 53.2097 147.419 53.2304 147.307 53.2304C147.195 53.2304 147.09 53.2097 146.985 53.1682C146.887 53.1267 146.796 53.0644 146.719 52.9883C146.642 52.9123 146.586 52.8293 146.537 52.7255C146.495 52.6218 146.474 52.518 146.474 52.4073ZM140.072 50.7197C139.589 50.7197 139.211 50.858 138.937 51.1347C138.664 51.4114 138.489 51.7918 138.419 52.2759H141.508C141.508 52.0477 141.473 51.8402 141.41 51.6465C141.347 51.4529 141.256 51.2938 141.13 51.1555C141.004 51.0171 140.857 50.9134 140.681 50.8373C140.499 50.7543 140.296 50.7197 140.072 50.7197ZM140.044 49.9935C140.387 49.9935 140.695 50.0488 140.983 50.1595C141.27 50.2701 141.522 50.4361 141.725 50.6436C141.935 50.858 142.096 51.1209 142.215 51.4321C142.334 51.7434 142.39 52.0961 142.39 52.4973C142.39 52.6494 142.376 52.7532 142.341 52.8085C142.306 52.8569 142.243 52.8846 142.152 52.8846H138.377C138.384 53.2373 138.433 53.5486 138.524 53.8114C138.615 54.0742 138.734 54.2886 138.895 54.4685C139.05 54.6414 139.239 54.7728 139.456 54.8627C139.673 54.9457 139.918 54.9941 140.184 54.9941C140.436 54.9941 140.653 54.9665 140.836 54.9111C141.018 54.8558 141.172 54.7936 141.305 54.7244C141.438 54.6552 141.543 54.593 141.634 54.5376C141.718 54.4823 141.795 54.4546 141.858 54.4546C141.942 54.4546 142.005 54.4892 142.047 54.5515L142.327 54.9111C142.201 55.0564 142.054 55.1878 141.886 55.2915C141.711 55.4022 141.529 55.4921 141.333 55.5613C141.137 55.6305 140.934 55.6858 140.723 55.7204C140.513 55.755 140.31 55.7757 140.1 55.7757C139.708 55.7757 139.351 55.7135 139.014 55.582C138.685 55.4506 138.398 55.257 138.16 55.008C137.922 54.7521 137.733 54.4408 137.593 54.0742C137.46 53.7007 137.39 53.2719 137.39 52.7878C137.39 52.4004 137.453 52.0339 137.572 51.6949C137.691 51.356 137.866 51.0586 138.097 50.8096C138.328 50.5606 138.601 50.367 138.93 50.2217C139.267 50.0626 139.638 49.9935 140.044 49.9935ZM132.522 55.6858V50.0834H133.096C133.201 50.0834 133.278 50.1041 133.32 50.1456C133.362 50.1871 133.39 50.2563 133.404 50.3531L133.474 51.2246C133.67 50.8304 133.909 50.526 134.196 50.3047C134.483 50.0834 134.812 49.9796 135.197 49.9796C135.351 49.9796 135.499 49.9935 135.625 50.028C135.751 50.0626 135.87 50.111 135.975 50.1733L135.849 50.9064C135.821 50.9964 135.765 51.0448 135.674 51.0448C135.625 51.0448 135.541 51.024 135.435 50.9894C135.323 50.9549 135.176 50.941 134.98 50.941C134.63 50.941 134.343 51.0379 134.112 51.2384C133.881 51.439 133.684 51.7295 133.523 52.1099V55.6789H132.522V55.6858ZM127.661 55.0841C127.836 55.0841 127.997 55.0633 128.144 55.0287C128.291 54.9941 128.432 54.9457 128.558 54.8766C128.684 54.8143 128.81 54.7382 128.929 54.6414C129.048 54.5515 129.16 54.4408 129.272 54.3232V53.1682C128.81 53.1682 128.425 53.1958 128.102 53.2512C127.78 53.3065 127.521 53.3826 127.318 53.4794C127.115 53.5693 126.968 53.68 126.877 53.8045C126.786 53.929 126.737 54.0742 126.737 54.2264C126.737 54.3786 126.758 54.5031 126.807 54.6137C126.856 54.7175 126.919 54.8074 127.003 54.8766C127.087 54.9457 127.185 54.9941 127.297 55.0287C127.409 55.0633 127.535 55.0841 127.661 55.0841ZM130.253 55.6858H129.811C129.713 55.6858 129.636 55.672 129.573 55.6443C129.51 55.6166 129.475 55.5544 129.454 55.4576L129.342 54.9388C129.195 55.0702 129.048 55.1878 128.908 55.2915C128.768 55.3953 128.614 55.4852 128.46 55.5544C128.305 55.6235 128.137 55.6789 127.962 55.7204C127.787 55.755 127.584 55.7757 127.367 55.7757C127.15 55.7757 126.94 55.7411 126.751 55.6858C126.561 55.6235 126.393 55.5336 126.246 55.4091C126.106 55.2846 125.994 55.1325 125.91 54.9457C125.826 54.759 125.784 54.5376 125.784 54.2817C125.784 54.0604 125.847 53.846 125.966 53.6385C126.092 53.431 126.288 53.2512 126.561 53.0921C126.835 52.933 127.192 52.8016 127.64 52.6978C128.081 52.5941 128.628 52.5457 129.272 52.5457V52.1099C129.272 51.6742 129.181 51.3422 128.992 51.114C128.803 50.8857 128.523 50.775 128.151 50.775C127.906 50.775 127.703 50.8027 127.542 50.8649C127.374 50.9272 127.234 50.9964 127.108 51.0725C126.989 51.1485 126.884 51.2177 126.793 51.2799C126.709 51.3422 126.618 51.3699 126.533 51.3699C126.463 51.3699 126.407 51.3491 126.358 51.3145C126.309 51.2799 126.267 51.2384 126.239 51.1831L126.057 50.8649C126.372 50.5675 126.709 50.3462 127.073 50.194C127.437 50.0488 127.836 49.9727 128.277 49.9727C128.593 49.9727 128.88 50.0211 129.125 50.1249C129.37 50.2286 129.58 50.3739 129.748 50.5537C129.916 50.7405 130.042 50.9618 130.126 51.2246C130.211 51.4875 130.253 51.771 130.253 52.0892V55.6858ZM116 50.0834H116.784C116.868 50.0834 116.931 50.1041 116.987 50.1456C117.043 50.1871 117.078 50.2355 117.092 50.2909L118.178 53.8944C118.206 54.0258 118.234 54.1572 118.262 54.2748C118.29 54.3993 118.311 54.5238 118.332 54.6483C118.36 54.5238 118.395 54.3993 118.43 54.2748C118.465 54.1503 118.507 54.0258 118.549 53.8944L119.747 50.2632C119.768 50.2079 119.796 50.1595 119.845 50.1249C119.894 50.0903 119.95 50.0695 120.02 50.0695H120.454C120.531 50.0695 120.594 50.0903 120.636 50.1249C120.685 50.1595 120.72 50.2079 120.734 50.2632L121.904 53.8944C121.946 54.0258 121.981 54.1503 122.016 54.2748C122.051 54.3993 122.079 54.5238 122.107 54.6483C122.128 54.5238 122.149 54.3993 122.177 54.2679C122.205 54.1365 122.24 54.012 122.275 53.8944L123.382 50.2909C123.403 50.2286 123.438 50.1802 123.487 50.1456C123.536 50.1041 123.599 50.0903 123.669 50.0903H124.418L122.583 55.6927H121.792C121.694 55.6927 121.631 55.6305 121.589 55.506L120.335 51.7088C120.307 51.6258 120.279 51.5359 120.265 51.4529C120.244 51.3629 120.23 51.2799 120.209 51.1969C120.188 51.2799 120.174 51.3699 120.153 51.4529C120.132 51.5428 120.111 51.6258 120.083 51.7157L118.808 55.5129C118.766 55.6374 118.689 55.6996 118.577 55.6996H117.828L116 50.0834ZM111.776 54.9665C112.098 54.9665 112.385 54.8904 112.631 54.7451C112.876 54.5999 113.1 54.3924 113.303 54.1226V51.4114C113.121 51.1693 112.918 50.9964 112.701 50.8995C112.484 50.8027 112.238 50.7543 111.972 50.7543C111.44 50.7543 111.034 50.941 110.754 51.3145C110.466 51.688 110.326 52.2206 110.326 52.9053C110.326 53.2719 110.361 53.5832 110.424 53.8391C110.487 54.1019 110.578 54.3163 110.705 54.4823C110.831 54.6483 110.978 54.7728 111.16 54.8489C111.342 54.9319 111.545 54.9665 111.776 54.9665ZM113.709 55.6858C113.569 55.6858 113.478 55.6166 113.443 55.4783L113.352 54.8005C113.107 55.091 112.834 55.3261 112.519 55.4991C112.203 55.672 111.846 55.7619 111.447 55.7619C111.125 55.7619 110.831 55.6996 110.564 55.5751C110.298 55.4506 110.074 55.2708 109.885 55.0287C109.696 54.7867 109.556 54.4892 109.451 54.1365C109.353 53.7768 109.297 53.3688 109.297 52.9053C109.297 52.4903 109.353 52.1099 109.465 51.7503C109.577 51.3975 109.738 51.0863 109.948 50.8234C110.158 50.5606 110.417 50.3531 110.719 50.2079C111.02 50.0557 111.363 49.9866 111.748 49.9866C112.098 49.9866 112.392 50.0419 112.638 50.1595C112.883 50.277 113.107 50.443 113.296 50.6505V47.545H114.291V55.6927H113.709V55.6858ZM104.443 55.6858V50.0834H105.017C105.129 50.0834 105.199 50.1041 105.241 50.1456C105.283 50.1871 105.311 50.2563 105.325 50.3531L105.396 51.2246C105.592 50.8304 105.83 50.526 106.117 50.3047C106.404 50.0834 106.733 49.9796 107.118 49.9796C107.273 49.9796 107.42 49.9935 107.546 50.028C107.672 50.0626 107.791 50.111 107.896 50.1733L107.77 50.9064C107.742 50.9964 107.686 51.0448 107.595 51.0448C107.546 51.0448 107.462 51.024 107.357 50.9894C107.245 50.9549 107.097 50.941 106.901 50.941C106.551 50.941 106.264 51.0379 106.033 51.2384C105.802 51.439 105.606 51.7295 105.445 52.1099V55.6789H104.443V55.6858ZM99.5752 55.0841C99.7503 55.0841 99.9114 55.0633 100.058 55.0287C100.206 54.9941 100.346 54.9457 100.472 54.8766C100.598 54.8143 100.724 54.7382 100.843 54.6414C100.962 54.5515 101.074 54.4408 101.186 54.3232V53.1682C100.724 53.1682 100.339 53.1958 100.016 53.2512C99.6943 53.3065 99.4351 53.3826 99.232 53.4794C99.0289 53.5693 98.8818 53.68 98.7908 53.8045C98.6997 53.929 98.6507 54.0742 98.6507 54.2264C98.6507 54.3786 98.6717 54.5031 98.7207 54.6137C98.7698 54.7175 98.8328 54.8074 98.9168 54.8766C99.0009 54.9457 99.099 54.9941 99.211 55.0287C99.3231 55.0633 99.4491 55.0841 99.5752 55.0841ZM101.725 55.6858C101.627 55.6858 101.55 55.672 101.487 55.6443C101.424 55.6166 101.389 55.5544 101.368 55.4576L101.256 54.9388C101.109 55.0702 100.962 55.1878 100.822 55.2915C100.682 55.3953 100.528 55.4852 100.374 55.5544C100.22 55.6235 100.052 55.6789 99.8764 55.7204C99.7013 55.755 99.4982 55.7757 99.2881 55.7757C99.0639 55.7757 98.8608 55.7411 98.6717 55.6858C98.4826 55.6235 98.3145 55.5336 98.1674 55.4091C98.0274 55.2846 97.9153 55.1325 97.8312 54.9457C97.7472 54.759 97.7052 54.5376 97.7052 54.2817C97.7052 54.0604 97.7682 53.846 97.8873 53.6385C98.0134 53.431 98.2095 53.2512 98.4826 53.0921C98.7558 52.933 99.113 52.8016 99.5612 52.6978C100.009 52.5941 100.549 52.5457 101.193 52.5457V52.1099C101.193 51.6742 101.102 51.3422 100.913 51.114C100.724 50.8857 100.444 50.775 100.073 50.775C99.8274 50.775 99.6242 50.8027 99.4632 50.8649C99.2951 50.9272 99.155 50.9964 99.0289 51.0725C98.9098 51.1485 98.8048 51.2177 98.7137 51.2799C98.6297 51.3422 98.5387 51.3699 98.4546 51.3699C98.3846 51.3699 98.3285 51.3491 98.2795 51.3145C98.2305 51.2799 98.1884 51.2384 98.1604 51.1831L97.9783 50.8649C98.2935 50.5675 98.6297 50.3462 98.9939 50.194C99.3581 50.0488 99.7573 49.9727 100.199 49.9727C100.514 49.9727 100.801 50.0211 101.046 50.1249C101.291 50.2286 101.501 50.3739 101.669 50.5537C101.838 50.7405 101.964 50.9618 102.048 51.2246C102.132 51.4875 102.174 51.771 102.174 52.0892V55.6858H101.725ZM91.0094 55.6858V47.5381H92.004V50.8373C92.2491 50.5814 92.5153 50.3808 92.8094 50.2286C93.1036 50.0765 93.4468 50.0004 93.832 50.0004C94.1402 50.0004 94.4133 50.0488 94.6515 50.1525C94.8896 50.2563 95.0857 50.3946 95.2468 50.5814C95.4079 50.7681 95.5269 50.9894 95.604 51.2523C95.688 51.5151 95.7301 51.8056 95.7301 52.1238V55.6927H94.7355V52.1238C94.7355 51.7019 94.6374 51.3699 94.4413 51.1347C94.2452 50.8995 93.944 50.782 93.5448 50.782C93.2507 50.782 92.9775 50.8511 92.7184 50.9894C92.4592 51.1278 92.2281 51.3214 92.011 51.5566V55.6858H91.0094Z" fill="#241F21"/>
<path d="M254.146 51.0033C254.103 51.0863 254.033 51.1278 253.935 51.1278C253.879 51.1278 253.816 51.107 253.746 51.0655C253.676 51.024 253.592 50.9756 253.487 50.9272C253.382 50.8788 253.263 50.8304 253.116 50.7889C252.976 50.7474 252.808 50.7266 252.612 50.7266C252.444 50.7266 252.296 50.7474 252.156 50.7889C252.023 50.8304 251.911 50.8926 251.813 50.9618C251.715 51.0379 251.645 51.1209 251.596 51.2177C251.547 51.3145 251.519 51.4252 251.519 51.5359C251.519 51.6811 251.561 51.7987 251.645 51.8955C251.729 51.9924 251.841 52.0753 251.981 52.1445C252.121 52.2137 252.275 52.2759 252.451 52.3313C252.626 52.3866 252.808 52.4419 252.99 52.5042C253.172 52.5664 253.354 52.6356 253.529 52.7048C253.704 52.7808 253.858 52.8707 253.998 52.9814C254.139 53.0921 254.251 53.2235 254.335 53.3895C254.419 53.5486 254.461 53.7423 254.461 53.9705C254.461 54.2264 254.412 54.4685 254.321 54.6829C254.23 54.9042 254.089 55.091 253.907 55.25C253.725 55.4091 253.501 55.5406 253.235 55.6305C252.969 55.7204 252.661 55.7688 252.317 55.7688C251.925 55.7688 251.561 55.7065 251.239 55.5751C250.917 55.4506 250.644 55.2846 250.419 55.0841L250.658 54.7106C250.686 54.6621 250.721 54.6276 250.763 54.5999C250.805 54.5722 250.861 54.5584 250.924 54.5584C250.987 54.5584 251.064 54.5861 251.134 54.6345C251.211 54.6829 251.302 54.7451 251.407 54.8074C251.512 54.8696 251.645 54.925 251.792 54.9803C251.946 55.0287 252.135 55.0564 252.36 55.0564C252.556 55.0564 252.724 55.0287 252.871 54.9803C253.018 54.9319 253.137 54.8627 253.235 54.7797C253.333 54.6967 253.403 54.5999 253.452 54.4892C253.501 54.3786 253.522 54.261 253.522 54.1365C253.522 53.9843 253.48 53.8529 253.396 53.7492C253.312 53.6454 253.2 53.5624 253.06 53.4863C252.92 53.4172 252.766 53.3549 252.591 53.2996C252.416 53.2443 252.233 53.1889 252.044 53.1336C251.862 53.0713 251.68 53.0091 251.498 52.933C251.323 52.8569 251.162 52.7601 251.022 52.6494C250.882 52.5388 250.777 52.3935 250.693 52.2275C250.609 52.0615 250.566 51.854 250.566 51.6188C250.566 51.4044 250.609 51.1969 250.7 51.0033C250.791 50.8027 250.917 50.6298 251.092 50.4845C251.26 50.3324 251.477 50.2148 251.722 50.1318C251.974 50.0419 252.254 50.0004 252.577 50.0004C252.948 50.0004 253.284 50.0557 253.585 50.1733C253.879 50.2909 254.139 50.45 254.356 50.6505L254.146 51.0033ZM246.539 50.7197C246.056 50.7197 245.678 50.858 245.405 51.1347C245.131 51.4114 244.956 51.7918 244.886 52.2759H247.975C247.975 52.0477 247.94 51.8402 247.877 51.6465C247.814 51.4598 247.723 51.2938 247.597 51.1555C247.471 51.0171 247.324 50.9134 247.149 50.8373C246.966 50.7543 246.763 50.7197 246.539 50.7197ZM246.511 49.9935C246.854 49.9935 247.163 50.0488 247.45 50.1595C247.737 50.2701 247.989 50.4361 248.192 50.6436C248.402 50.858 248.563 51.1209 248.682 51.4321C248.802 51.7434 248.858 52.0961 248.858 52.4973C248.858 52.6494 248.844 52.7532 248.808 52.8085C248.773 52.8569 248.71 52.8846 248.619 52.8846H244.844C244.851 53.2373 244.9 53.5486 244.991 53.8114C245.082 54.0742 245.201 54.2886 245.363 54.4685C245.517 54.6414 245.706 54.7728 245.923 54.8627C246.14 54.9457 246.385 54.9941 246.651 54.9941C246.903 54.9941 247.121 54.9665 247.303 54.9111C247.485 54.8558 247.639 54.7936 247.772 54.7244C247.905 54.6552 248.01 54.593 248.101 54.5376C248.192 54.4823 248.262 54.4546 248.325 54.4546C248.409 54.4546 248.472 54.4892 248.514 54.5515L248.794 54.9111C248.668 55.0564 248.521 55.1878 248.353 55.2915C248.185 55.4022 247.996 55.4921 247.8 55.5613C247.604 55.6305 247.401 55.6858 247.191 55.7204C246.98 55.755 246.777 55.7757 246.567 55.7757C246.175 55.7757 245.818 55.7065 245.482 55.5751C245.152 55.4437 244.865 55.2501 244.627 55.0011C244.389 54.7451 244.2 54.4339 244.06 54.0673C243.927 53.6938 243.857 53.265 243.857 52.7808C243.857 52.3935 243.92 52.0269 244.039 51.688C244.158 51.3491 244.333 51.0517 244.564 50.8027C244.795 50.5537 245.068 50.36 245.398 50.2148C245.734 50.0626 246.105 49.9935 246.511 49.9935ZM241.973 48.3266C241.973 48.4234 241.952 48.5133 241.917 48.5963C241.875 48.6793 241.826 48.7554 241.763 48.8176C241.699 48.8799 241.622 48.9352 241.531 48.9698C241.447 49.0044 241.356 49.0251 241.258 49.0251C241.16 49.0251 241.069 49.0044 240.985 48.9698C240.901 48.9352 240.824 48.8799 240.761 48.8176C240.698 48.7554 240.642 48.6793 240.607 48.5963C240.572 48.5133 240.551 48.4234 240.551 48.3266C240.551 48.2297 240.572 48.1398 240.607 48.0499C240.642 47.9669 240.698 47.8908 240.761 47.8217C240.824 47.7594 240.901 47.7041 240.985 47.6695C241.069 47.6349 241.16 47.6142 241.258 47.6142C241.356 47.6142 241.447 47.6349 241.531 47.6695C241.615 47.7041 241.692 47.7525 241.763 47.8217C241.826 47.8839 241.882 47.96 241.917 48.0499C241.952 48.1329 241.973 48.2297 241.973 48.3266ZM241.749 55.6858H240.754V50.0834H241.749V55.6858ZM238.12 55.6858H237.126V47.5381H238.12V55.6858ZM232.587 50.782C232.265 50.782 231.978 50.858 231.733 51.0033C231.488 51.1485 231.264 51.356 231.06 51.6258V54.3371C231.243 54.5792 231.446 54.7521 231.663 54.8489C231.88 54.9457 232.125 55.0011 232.391 55.0011C232.917 55.0011 233.323 54.8143 233.61 54.4408C233.89 54.0673 234.037 53.5347 234.037 52.85C234.037 52.4834 234.002 52.1722 233.939 51.9094C233.876 51.6465 233.778 51.4321 233.652 51.2661C233.526 51.1001 233.379 50.9756 233.197 50.8995C233.022 50.8165 232.818 50.782 232.587 50.782ZM230.066 50.0834H230.661C230.801 50.0834 230.892 50.1525 230.927 50.2909L231.011 50.9549C231.257 50.6644 231.53 50.4292 231.845 50.2494C232.16 50.0696 232.517 49.9866 232.924 49.9866C233.246 49.9866 233.54 50.0488 233.806 50.1733C234.072 50.2978 234.296 50.4776 234.485 50.7197C234.675 50.9618 234.815 51.2592 234.92 51.6188C235.018 51.9785 235.074 52.3866 235.074 52.85C235.074 53.265 235.018 53.6454 234.906 54.0051C234.794 54.3578 234.632 54.6691 234.422 54.9319C234.212 55.1878 233.96 55.3953 233.652 55.5475C233.351 55.6996 233.008 55.7757 232.622 55.7757C232.272 55.7757 231.971 55.7204 231.726 55.6028C231.481 55.4921 231.257 55.3261 231.067 55.1186V57.5948H230.066V50.0834ZM225.639 50.782C225.317 50.782 225.03 50.858 224.785 51.0033C224.54 51.1485 224.316 51.356 224.113 51.6258V54.3371C224.295 54.5792 224.498 54.7521 224.715 54.8489C224.932 54.9457 225.177 55.0011 225.443 55.0011C225.969 55.0011 226.375 54.8143 226.655 54.4408C226.942 54.0673 227.082 53.5347 227.082 52.85C227.082 52.4834 227.047 52.1722 226.984 51.9094C226.921 51.6465 226.823 51.4321 226.704 51.2661C226.578 51.1001 226.431 50.9756 226.249 50.8995C226.074 50.8165 225.871 50.782 225.639 50.782ZM223.118 50.0834H223.713C223.853 50.0834 223.944 50.1525 223.979 50.2909L224.064 50.9549C224.309 50.6644 224.582 50.4292 224.897 50.2494C225.212 50.0696 225.569 49.9866 225.976 49.9866C226.298 49.9866 226.592 50.0488 226.858 50.1733C227.124 50.2978 227.348 50.4776 227.537 50.7197C227.727 50.9618 227.867 51.2592 227.972 51.6188C228.07 51.9785 228.126 52.3866 228.126 52.85C228.126 53.265 228.07 53.6454 227.958 54.0051C227.846 54.3578 227.685 54.6691 227.474 54.9319C227.264 55.1878 227.012 55.3953 226.704 55.5475C226.403 55.6996 226.053 55.7757 225.674 55.7757C225.324 55.7757 225.023 55.7204 224.778 55.6028C224.533 55.4921 224.309 55.3261 224.12 55.1186V57.5948H223.118V50.0834Z" fill="#241F21"/>
</svg>
