<?xml version="1.0" encoding="UTF-8"?>
<svg xmlns="http://www.w3.org/2000/svg" width="120" height="32" viewBox="0 0 120 32" fill="none">
  <g clip-path="url(#clip0_214_3)">
    <mask id="mask0_214_3" style="mask-type:luminance" maskUnits="userSpaceOnUse" x="1" y="8" width="24" height="24">
      <path d="M1.85571 30.1127L5.90688 30.7363L7.72315 19.4919L13.0766 31.3857L18.5836 19.7255L20.3185 30.7363L24.5208 30.1944L20.2208 8.41575L13.1766 23.1474L6.0092 8.37604L1.85571 30.1127Z" fill="white"></path>
    </mask>
    <g mask="url(#mask0_214_3)">
      <path d="M24.5208 8.37604H1.85571V31.3857H24.5208V8.37604Z" fill="url(#paint0_linear_214_3)"></path>
    </g>
    <mask id="mask1_214_3" style="mask-type:luminance" maskUnits="userSpaceOnUse" x="44" y="12" width="62" height="21">
      <path d="M99.7558 15.6543V13.6409L102.486 12.4286V15.736L105.219 15.6753L105.202 18.6791L102.512 18.6441V23.103C102.54 25.28 104.016 25.5299 106 25.4061C105.695 26.3638 105.4 27.3144 105.093 28.2744C103 28.6365 101.372 27.9684 100.477 26.4198C99.5675 24.8175 99.5465 22.2785 99.5837 18.546L97.8651 18.5086L98.7023 15.6683L99.7558 15.6543ZM97.3419 15.5352C96.4116 15.6963 95.3907 15.7407 94.4582 15.9019V23.0003C93.7605 26.247 90.2279 25.642 90.3442 23.5422C90.3326 20.8117 90.3279 18.3778 90.3233 15.6379C89.4148 15.6753 88.5008 15.7096 87.5814 15.7407C87.5907 18.3381 87.5985 20.9386 87.6047 23.5422C87.4744 27.7909 91.014 30.2855 94.6396 26.5133C94.6396 27.0762 94.6558 27.6461 94.6628 28.2067C95.5628 28.0969 96.4582 27.9731 97.3628 27.868C97.3489 23.7617 97.3419 19.6508 97.3419 15.5352ZM74.6675 15.3717L74.7582 31.5819L77.4651 32.0187L77.5279 27.1486C84.8209 30.9933 88.6651 23.8108 86.7396 19.4686C85.293 16.1985 81.9116 13.6479 77.4651 16.7054V15.701L74.6675 15.3717ZM80.8093 18.0671C82.7 18.0671 84.2489 19.7419 84.2489 21.8044C84.2489 23.8668 82.7 25.5416 80.8093 25.5416C78.9186 25.5416 77.3605 23.8762 77.3605 21.8044C77.3605 19.7325 78.9023 18.0671 80.8093 18.0671ZM66.5209 24.5746C69.2202 22.9738 71.9186 21.3715 74.6163 19.7676C73.0303 14.4654 66.5 14.1757 64.1349 18.0578C59.5372 25.6023 67.6954 31.0773 73.6837 26.9594C73.3954 26.0531 73.0954 25.1375 72.8023 24.2242C70.4349 25.9317 68.3558 25.9457 66.5209 24.5746ZM65.6256 22.1407C65.614 18.5319 69.4349 17.1912 70.8326 19.0738C69.0961 20.0953 67.3605 21.1176 65.6256 22.1407ZM56.4907 15.6543V13.6409L59.2233 12.4286V15.736L61.9558 15.6753L61.9303 18.6791L59.2489 18.6441V23.103C59.2791 25.28 60.7489 25.5299 62.7233 25.4061C62.4279 26.3638 62.1186 27.3144 61.8279 28.2744C59.7349 28.6365 58.0907 27.9684 57.2093 26.4198C56.293 24.8175 56.2791 22.2785 56.3163 18.546L54.5977 18.5086L55.4326 15.6683L56.4907 15.6543ZM44.2372 28.2674C45.214 28.1109 46.1744 27.9474 47.1465 27.8003V20.7089C48.7303 17.3734 51.6814 17.8686 51.5512 19.9638C51.5605 22.7013 51.5682 25.438 51.5744 28.174C52.5326 28.1319 53.4837 28.1016 54.4326 28.0735C54.4326 25.4738 54.4326 22.8671 54.4209 20.2721C54.5535 16.021 51.1837 13.8931 47.0582 17.294C47.0582 16.7287 47.0442 16.1728 47.0396 15.6076C46.1093 15.722 45.1605 15.8411 44.2209 15.9439C44.2287 20.0517 44.2341 24.1643 44.2372 28.2814V28.2674Z" fill="white"></path>
    </mask>
    <g mask="url(#mask1_214_3)">
      <path d="M105.993 12.4286H44.2209V32.0187H105.993V12.4286Z" fill="url(#paint1_linear_214_3)"></path>
    </g>
    <mask id="mask2_214_3" style="mask-type:luminance" maskUnits="userSpaceOnUse" x="26" y="11" width="17" height="20">
      <path d="M39.0675 14.9302C46.2373 20.6295 42.4931 30.685 34.7861 30.7854C25.5419 30.8952 23.2396 19.5457 31.9559 11.4359L33.5233 13.0172C28.5977 15.8365 25.0024 25.9737 31.4303 28.9682C32.3605 29.398 33.5489 29.5591 34.9187 29.6526C40.2675 29.8978 46.0628 22.0777 39.0675 14.9372M35.5094 15.0166L36.9791 16.4928C33.2815 20.1296 32.3535 23.5492 33.4024 24.32C35.8605 26.1022 39.521 22.685 35.607 18.6137C40.507 22.1174 36.9233 27.1907 33.1582 25.6397C30.7721 24.647 30.1326 20.7089 35.5094 15.0096V15.0166ZM34.3024 26.1793V26.9244C38.6373 26.8053 40.5163 22.9022 37.6094 18.845C39.9535 23.4885 38.2861 25.8733 34.3024 26.1793ZM33.6884 26.1115C33.6396 26.3731 33.5884 26.6301 33.5489 26.8893C30.5884 25.8453 29.8652 23.2829 31.9721 19.1813C30.5977 23.0517 30.8791 25.5019 33.6884 26.1092V26.1115ZM35.7628 18.1559C35.8698 18.0274 35.9675 17.8966 36.0791 17.7658C37.3745 18.7422 37.9396 20.0876 38.321 21.5918C37.7512 20.2254 37.0396 19.0225 35.7628 18.1536V18.1559ZM33.321 28.4753C33.2745 28.7089 33.2256 28.9425 33.1791 29.1924C28.2024 28.3282 26.4559 21.8955 31.0303 15.6777C27.314 21.8651 28.5466 27.5317 33.321 28.473V28.4753ZM34.4838 28.5758C34.4838 28.8374 34.5094 29.0943 34.5187 29.3653C41.1884 28.9705 44.2721 21.8908 38.8489 16.5863C43.4047 22.4257 40.6698 28.0199 34.4768 28.5734L34.4838 28.5758ZM38.6047 15.2946C38.5024 15.381 38.4094 15.4721 38.3187 15.5609C40.5303 17.5393 42.0396 19.7396 41.9326 22.4327C42.0419 20.0012 41.3838 17.5953 38.5977 15.2923L38.6047 15.2946ZM36.3977 17.4085C36.5675 17.2356 36.7373 17.0674 36.9047 16.8946C40.4373 20.1647 40.3373 23.019 38.1977 25.635C40.214 22.5145 39.4535 19.7185 36.3908 17.4061L36.3977 17.4085ZM37.3419 16.6026C37.5187 16.4111 37.7094 16.2266 37.8861 16.035C42.0419 20.3609 41.4931 24.2102 38.7466 26.8006C41.4799 23.0322 41.0117 19.6329 37.3419 16.6026ZM33.8535 13.3326L35.2861 14.7761C30.4233 18.6417 28.7745 24.9834 32.6419 26.8193C35.9814 28.4099 42.8256 25.0301 38.407 17.8709C43.3838 23.6636 37.6373 28.828 32.9908 28.0128C27.3559 27.0412 28.1721 17.2123 33.8535 13.3326Z" fill="white"></path>
    </mask>
    <g mask="url(#mask2_214_3)">
      <path d="M13.6211 19.9942L33.3467 42.3615L55.8467 22.3416L36.1281 -0.0256958L13.6211 19.9942Z" fill="url(#paint2_linear_214_3)"></path>
    </g>
    <mask id="mask3_214_3" style="mask-type:luminance" maskUnits="userSpaceOnUse" x="66" y="1" width="54" height="29">
      <path d="M67.2396 1.9527C67.1675 2.59737 67.0931 3.2397 67.0303 3.89372C78.0234 4.81401 88.5443 7.84116 99.535 13.739C89.3141 6.54481 78.2722 3.28876 67.2396 1.9527ZM66.9908 4.45664C66.9187 5.17372 66.8513 5.88613 66.7815 6.60087C77.0931 7.19182 87.1606 9.87095 98.3257 15.6263C89.3303 9.79153 79.7071 6.10803 66.9908 4.45664ZM88.6861 9.19591C88.5652 9.42949 88.4699 9.66306 88.3443 9.89664C83.9257 7.88321 79.4559 6.57752 75.0675 5.49372C79.4094 6.05664 84.1443 7.46511 88.6861 9.20058V9.19591ZM90.0815 9.71445C89.9931 9.95971 89.8489 10.3147 89.7629 10.56C93.0048 11.8774 96.1675 13.4914 99.4559 15.2152C96.7978 13.1387 93.7954 11.4639 90.0792 9.71912L90.0815 9.71445ZM119.993 29.9655C115.593 25.1422 110.472 21.6572 106.072 18.4596C105.958 18.8309 105.84 19.1977 105.726 19.5714C110.03 22.1407 115.481 25.906 119.991 29.9702L119.993 29.9655Z" fill="white"></path>
    </mask>
    <g mask="url(#mask3_214_3)">
      <path d="M52.8374 15.5258L92.5746 56.6797L133.935 16.3877L94.2048 -24.7592L52.8374 15.5258Z" fill="url(#paint3_linear_214_3)"></path>
    </g>
    <mask id="mask4_214_3" style="mask-type:luminance" maskUnits="userSpaceOnUse" x="32" y="1" width="35" height="16">
      <path d="M66.2836 1.85693C57.1697 0.221891 43.4929 1.607 32.3069 10.887L33.9046 12.522C43.6836 2.31474 58.7883 1.60466 66.2836 1.85459M35.586 14.2155C42.3557 7.43007 54.4487 3.67416 66.0743 4.23941C55.4999 2.56 41.1906 6.30189 34.2673 12.8934L35.586 14.2155ZM37.4464 16.0841C41.4534 10.9454 60.5418 6.11736 65.7929 6.64291C53.6557 5.15736 41.7604 9.7051 35.9464 14.5728L37.4464 16.0841ZM65.9906 4.45664C65.958 4.75094 65.9348 4.97985 65.9022 5.26248C61.8743 4.72992 57.8999 4.98452 53.872 5.43766C57.9348 4.72759 61.9301 4.24642 65.9906 4.45664ZM66.258 2.07182C66.2278 2.36146 66.1929 2.64642 66.1581 2.93839C62.1441 2.38948 56.6534 2.77021 52.6348 3.2724C56.6441 2.45255 62.2022 1.85693 66.258 2.06248V2.07182ZM48.9487 4.18802C49.0022 4.47065 49.0604 4.75094 49.1162 5.03123C53.0557 3.70452 57.7046 3.25839 61.7325 2.92904C57.6348 2.84729 52.9511 3.19299 48.9487 4.17868V4.18802ZM66.1301 3.15561C66.0976 3.44758 66.0767 3.73489 66.0371 4.01284C62.0162 3.48029 57.6487 3.65313 53.6301 4.10393C57.6836 3.39152 62.086 2.94306 66.1301 3.14627V3.15561ZM49.565 6.55883C49.6278 6.84145 49.679 7.11941 49.7371 7.39503C53.6906 6.07532 58.3232 5.62919 62.3464 5.29284C58.2464 5.21342 53.5673 5.55912 49.565 6.55883ZM65.8674 5.52641C65.8394 5.81138 65.8046 6.10335 65.772 6.39065C61.7557 5.84875 57.7673 6.19678 53.7418 6.64759C57.8069 5.93518 61.8115 5.31152 65.8674 5.51941V5.52641ZM48.4627 4.37722C48.5185 4.6108 48.565 4.83269 48.6301 5.05926C44.6767 6.09634 40.7232 8.02102 36.7697 10.4596C40.5627 7.57022 44.4511 5.51941 48.4627 4.37021V4.37722ZM49.0976 6.80642C49.158 7.03999 49.2069 7.25956 49.2604 7.48613C45.3069 8.52087 41.3534 10.5226 37.3999 12.9635C41.1999 10.0625 45.0906 7.9416 49.0976 6.7924V6.80642Z" fill="white"></path>
    </mask>
    <g mask="url(#mask4_214_3)">
      <path d="M38.3324 29.1247L72.3115 13.2859L60.2557 -12.8L26.272 3.04585L38.3324 29.1247Z" fill="url(#paint4_linear_214_3)"></path>
    </g>
    <mask id="mask5_214_3" style="mask-type:luminance" maskUnits="userSpaceOnUse" x="8" y="15" width="21" height="21">
      <path d="M27.3046 17.593C27.0038 18.3076 26.7702 19.049 26.6069 19.8073C25.3646 20.3656 24.1876 21.0605 23.0976 21.8792C23 21.3676 22.9 20.8631 22.8069 20.3516C24.225 19.3061 25.7289 18.3832 27.3023 17.593M22.493 18.7889L22.5953 19.3518C24.2438 18.3468 25.9622 17.4624 27.7372 16.7054C27.9382 16.2614 28.1714 15.8328 28.4348 15.4231C26.693 16.292 24.1581 17.5954 22.4953 18.7889H22.493ZM14.2465 29.3256C15.9255 27.6905 17.6302 26.0321 19.1302 24.7475C19.0744 24.3597 19.0162 23.9743 18.9604 23.5796C17.493 25.0558 16.2255 26.4783 14.9 27.9568C14.7302 28.3399 14.4209 28.9308 14.2465 29.3256ZM16.9255 23.7197C17.5558 23.1848 18.0883 22.7013 18.7139 22.1548C18.7023 22.08 18.6883 22.0006 18.6744 21.9212C18.0395 22.5145 17.5232 23.0821 16.9255 23.7151V23.7197ZM23.3255 23.0354C24.3107 22.358 25.3419 21.7507 26.4116 21.2181C26.4441 20.9168 26.486 20.6295 26.5232 20.3212C25.3604 21.057 24.2814 21.7857 23.2279 22.5962C23.2534 22.7481 23.3116 22.8929 23.3255 23.0307V23.0354ZM19.3465 26.1186C19.0581 26.3521 18.8279 26.5717 18.572 26.8076C18.7864 26.5011 19.0336 26.2191 19.3093 25.9667C19.3186 26.0158 19.3418 26.0648 19.3465 26.1139V26.1186ZM8.10693 35.4873C9.586 33.9504 11.0883 32.4135 12.6767 30.9162C12.6232 30.8111 12.5558 30.7177 12.5 30.6149C10.9372 32.2126 9.50228 33.8476 8.10693 35.4873Z" fill="white"></path>
    </mask>
    <g mask="url(#mask5_214_3)">
      <path d="M18.8464 5.22278L-1.8606 24.8993L17.7138 45.6923L38.4278 26.0158L18.8464 5.22278Z" fill="url(#paint5_linear_214_3)"></path>
    </g>
  </g>
  <defs>
    <linearGradient id="paint0_linear_214_3" x1="13.7842" y1="30.2351" x2="13.7842" y2="6.77557" gradientUnits="userSpaceOnUse">
      <stop stop-color="#2E3192"></stop>
      <stop offset="0.79" stop-color="#0072BC"></stop>
      <stop offset="1" stop-color="#00AEEF"></stop>
    </linearGradient>
    <linearGradient id="paint1_linear_214_3" x1="72.2945" y1="30.9457" x2="72.2945" y2="10.9757" gradientUnits="userSpaceOnUse">
      <stop stop-color="#2E3192"></stop>
      <stop offset="0.55" stop-color="#0072BC"></stop>
      <stop offset="1" stop-color="#00AEEF"></stop>
    </linearGradient>
    <linearGradient id="paint2_linear_214_3" x1="23.517" y1="9.708" x2="43.7263" y2="32.4256" gradientUnits="userSpaceOnUse">
      <stop stop-color="#2E3192"></stop>
      <stop offset="0.75" stop-color="#0072BC"></stop>
      <stop offset="1" stop-color="#00AEEF"></stop>
    </linearGradient>
    <linearGradient id="paint3_linear_214_3" x1="72.9061" y1="-5.7953" x2="114.74" y2="37.1575" gradientUnits="userSpaceOnUse">
      <stop stop-color="#2E3192"></stop>
      <stop offset="0.66" stop-color="#0072BC"></stop>
      <stop offset="1" stop-color="#00AEEF"></stop>
    </linearGradient>
    <linearGradient id="paint4_linear_214_3" x1="32.7447" y1="16.9103" x2="67.4557" y2="0.864604" gradientUnits="userSpaceOnUse">
      <stop stop-color="#2E3192"></stop>
      <stop offset="0.64" stop-color="#0072BC"></stop>
      <stop offset="1" stop-color="#00AEEF"></stop>
    </linearGradient>
    <linearGradient id="paint5_linear_214_3" x1="28.6632" y1="15.0029" x2="7.15386" y2="35.2609" gradientUnits="userSpaceOnUse">
      <stop stop-color="#2E3192"></stop>
      <stop offset="0.66" stop-color="#0072BC"></stop>
      <stop offset="1" stop-color="#00AEEF"></stop>
    </linearGradient>
    <clipPath id="clip0_214_3">
      <rect width="120" height="32" fill="white"></rect>
    </clipPath>
  </defs>
</svg>
