<svg xmlns="http://www.w3.org/2000/svg" viewBox="0 0 1440 440" preserveAspectRatio="xMidYMax slice"><path d="M0,440 L0,148 Q0,148 60,142 Q120,136 180,123 Q240,110 300,150 Q360,190 420,143 Q480,96 540,123 Q600,150 660,172 Q720,194 780,149 Q840,104 900,130 Q960,156 1020,159 Q1080,163 1140,131 Q1200,99 1260,118 Q1320,137 1380,148 L1440,160 L1440,440 Z" fill="#1c130d"/><path d="M0,440 L0,225 Q0,225 60,207 Q120,188 180,178 Q240,168 300,199 Q360,231 420,264 Q480,298 540,271 Q600,244 660,259 Q720,274 780,243 Q840,211 900,240 Q960,269 1020,218 Q1080,166 1140,181 Q1200,197 1260,227 Q1320,258 1380,231 L1440,204 L1440,440 Z" fill="#120c09"/><path d="M0,440 L0,271 Q0,271 60,258 Q120,245 180,252 Q240,258 300,309 Q360,359 420,301 Q480,243 540,308 Q600,373 660,373 Q720,372 780,294 Q840,215 900,246 Q960,277 1020,288 Q1080,298 1140,254 Q1200,209 1260,248 Q1320,286 1380,297 L1440,307 L1440,440 Z" fill="#080605"/></svg>