<svg xmlns="http://www.w3.org/2000/svg" viewBox="0 0 1440 1900"><circle cx="1332" cy="1802" r="0.6" fill="#fff" opacity="0.33"/><circle cx="442" cy="720" r="1.0" fill="#fff" opacity="0.41"/><circle cx="276" cy="845" r="0.8" fill="#fff" opacity="0.74"/><circle cx="1298" cy="201" r="1.4" fill="#fff" opacity="0.61"/><circle cx="738" cy="1395" r="1.0" fill="#fff" opacity="0.84"/><circle cx="296" cy="67" r="1.0" fill="#fff" opacity="0.77"/><circle cx="894" cy="1844" r="1.0" fill="#fff" opacity="0.7"/><circle cx="1239" cy="1840" r="1.0" fill="#fff" opacity="0.77"/><circle cx="453" cy="163" r="1.4" fill="#fff" opacity="0.44"/><circle cx="696" cy="1504" r="0.8" fill="#fff" opacity="0.44"/><circle cx="257" cy="614" r="1.7" fill="#fff" opacity="0.45"/><circle cx="165" cy="187" r="0.5" fill="#fff" opacity="0.71"/><circle cx="1354" cy="533" r="2.1" fill="#fff" opacity="0.54"/><circle cx="532" cy="548" r="1.0" fill="#fff" opacity="0.93"/><circle cx="655" cy="415" r="0.8" fill="#fff" opacity="0.39"/><circle cx="1129" cy="1344" r="1.4" fill="#fff" opacity="0.48"/><circle cx="785" cy="1746" r="2.1" fill="#fff" opacity="0.39"/><circle cx="552" cy="854" r="0.5" fill="#fff" opacity="0.36"/><circle cx="599" cy="44" r="0.8" fill="#fff" opacity="0.79"/><circle cx="1402" cy="1529" r="0.5" fill="#fff" opacity="0.69"/><circle cx="1423" cy="1423" r="1.0" fill="#fff" opacity="0.33"/><circle cx="1135" cy="932" r="0.5" fill="#fff" opacity="0.37"/><circle cx="671" cy="374" r="1.4" fill="#fff" opacity="0.97"/><circle cx="311" cy="197" r="1.7" fill="#fff" opacity="0.76"/><circle cx="994" cy="1060" r="0.8" fill="#fff" opacity="0.49"/><circle cx="607" cy="1712" r="1.4" fill="#fff" opacity="0.84"/><circle cx="945" cy="787" r="0.8" fill="#fff" opacity="0.93"/><circle cx="990" cy="784" r="0.8" fill="#fff" opacity="0.69"/><circle cx="612" cy="568" r="1.7" fill="#fff" opacity="0.73"/><circle cx="74" cy="541" r="0.5" fill="#fff" opacity="0.75"/><circle cx="479" cy="1063" r="1.2" fill="#fff" opacity="0.49"/><circle cx="1370" cy="149" r="1.7" fill="#fff" opacity="0.79"/><circle cx="164" cy="1685" r="1.4" fill="#fff" opacity="0.86"/><circle cx="1423" cy="517" r="1.0" fill="#fff" opacity="0.58"/><circle cx="1131" cy="270" r="1.2" fill="#fff" opacity="0.46"/><circle cx="981" cy="329" r="1.4" fill="#fff" opacity="0.83"/><circle cx="1375" cy="798" r="1.0" fill="#fff" opacity="0.65"/><circle cx="992" cy="1024" r="1.7" fill="#fff" opacity="0.44"/><circle cx="767" cy="504" r="0.6" fill="#fff" opacity="0.47"/><circle cx="90" cy="1691" r="1.2" fill="#fff" opacity="0.85"/><circle cx="970" cy="1150" r="1.0" fill="#fff" opacity="0.78"/><circle cx="587" cy="1529" r="1.0" fill="#fff" opacity="0.97"/><circle cx="491" cy="736" r="1.2" fill="#fff" opacity="0.92"/><circle cx="962" cy="1436" r="1.0" fill="#fff" opacity="0.69"/><circle cx="995" cy="730" r="1.0" fill="#fff" opacity="0.99"/><circle cx="211" cy="705" r="2.1" fill="#fff" opacity="0.63"/><circle cx="174" cy="1075" r="1.4" fill="#fff" opacity="0.33"/><circle cx="53" cy="1487" r="0.6" fill="#fff" opacity="0.49"/><circle cx="1415" cy="1205" r="0.5" fill="#fff" opacity="0.6"/><circle cx="115" cy="381" r="2.1" fill="#fff" opacity="0.42"/><circle cx="1206" cy="172" r="1.7" fill="#fff" opacity="0.59"/><circle cx="978" cy="557" r="0.6" fill="#fff" opacity="0.74"/><circle cx="1003" cy="1150" r="0.5" fill="#fff" opacity="0.98"/><circle cx="1313" cy="347" r="0.5" fill="#fff" opacity="0.41"/><circle cx="983" cy="1771" r="1.0" fill="#fff" opacity="0.64"/><circle cx="1021" cy="1083" r="0.5" fill="#fff" opacity="0.88"/><circle cx="868" cy="1124" r="1.0" fill="#fff" opacity="0.34"/><circle cx="505" cy="304" r="0.8" fill="#fff" opacity="0.46"/><circle cx="614" cy="602" r="2.1" fill="#fff" opacity="0.47"/><circle cx="845" cy="1784" r="1.0" fill="#fff" opacity="0.68"/><circle cx="316" cy="1066" r="1.0" fill="#fff" opacity="0.63"/><circle cx="950" cy="1816" r="0.8" fill="#fff" opacity="0.56"/><circle cx="1414" cy="590" r="0.5" fill="#fff" opacity="0.65"/><circle cx="504" cy="400" r="1.7" fill="#fff" opacity="0.43"/><circle cx="455" cy="803" r="0.5" fill="#fff" opacity="0.53"/><circle cx="615" cy="1564" r="2.1" fill="#fff" opacity="0.95"/><circle cx="528" cy="1815" r="0.5" fill="#fff" opacity="0.78"/><circle cx="641" cy="329" r="1.0" fill="#fff" opacity="0.71"/><circle cx="1393" cy="1019" r="2.1" fill="#fff" opacity="0.75"/><circle cx="1172" cy="345" r="1.4" fill="#fff" opacity="0.99"/><circle cx="952" cy="817" r="0.6" fill="#fff" opacity="0.63"/><circle cx="5" cy="1210" r="1.0" fill="#fff" opacity="0.36"/><circle cx="49" cy="742" r="1.0" fill="#fff" opacity="0.81"/><circle cx="207" cy="1870" r="2.1" fill="#fff" opacity="0.87"/><circle cx="668" cy="1427" r="0.6" fill="#fff" opacity="0.61"/><circle cx="989" cy="1860" r="1.0" fill="#fff" opacity="0.4"/><circle cx="26" cy="988" r="0.8" fill="#fff" opacity="0.68"/><circle cx="284" cy="660" r="1.0" fill="#fff" opacity="0.5"/><circle cx="409" cy="937" r="1.7" fill="#fff" opacity="0.96"/><circle cx="780" cy="643" r="0.5" fill="#fff" opacity="0.47"/><circle cx="963" cy="1496" r="1.7" fill="#fff" opacity="0.42"/><circle cx="992" cy="1800" r="0.6" fill="#fff" opacity="0.79"/><circle cx="447" cy="476" r="2.1" fill="#fff" opacity="0.37"/><circle cx="117" cy="1511" r="1.4" fill="#fff" opacity="0.97"/><circle cx="910" cy="972" r="1.0" fill="#fff" opacity="0.69"/><circle cx="607" cy="1207" r="0.5" fill="#fff" opacity="0.92"/><circle cx="284" cy="1396" r="0.6" fill="#fff" opacity="0.77"/><circle cx="190" cy="1587" r="1.4" fill="#fff" opacity="0.36"/><circle cx="954" cy="270" r="0.5" fill="#fff" opacity="0.73"/><circle cx="556" cy="87" r="2.1" fill="#fff" opacity="0.61"/><circle cx="66" cy="34" r="0.8" fill="#fff" opacity="0.86"/><circle cx="510" cy="1109" r="1.7" fill="#fff" opacity="0.7"/><circle cx="1405" cy="16" r="1.4" fill="#fff" opacity="0.38"/><circle cx="470" cy="1274" r="2.1" fill="#fff" opacity="0.34"/><circle cx="240" cy="584" r="0.6" fill="#fff" opacity="0.42"/><circle cx="201" cy="1108" r="0.6" fill="#fff" opacity="0.74"/><circle cx="616" cy="963" r="0.8" fill="#fff" opacity="0.68"/><circle cx="773" cy="1127" r="0.8" fill="#fff" opacity="0.89"/><circle cx="383" cy="1140" r="2.1" fill="#fff" opacity="0.81"/><circle cx="1371" cy="1739" r="0.8" fill="#fff" opacity="0.4"/><circle cx="620" cy="122" r="1.7" fill="#fff" opacity="0.58"/><circle cx="482" cy="1543" r="0.8" fill="#fff" opacity="0.42"/><circle cx="909" cy="808" r="0.8" fill="#fff" opacity="0.43"/><circle cx="792" cy="470" r="0.5" fill="#fff" opacity="0.7"/><circle cx="1401" cy="183" r="0.8" fill="#fff" opacity="0.82"/><circle cx="220" cy="1067" r="0.5" fill="#fff" opacity="0.84"/><circle cx="643" cy="101" r="1.0" fill="#fff" opacity="0.56"/><circle cx="297" cy="1341" r="1.0" fill="#fff" opacity="0.52"/><circle cx="1155" cy="1730" r="0.6" fill="#fff" opacity="0.59"/><circle cx="960" cy="715" r="0.5" fill="#fff" opacity="0.44"/><circle cx="1267" cy="1794" r="0.5" fill="#fff" opacity="0.34"/><circle cx="1335" cy="624" r="0.8" fill="#fff" opacity="0.39"/><circle cx="1055" cy="1466" r="1.0" fill="#fff" opacity="0.96"/><circle cx="912" cy="1758" r="0.8" fill="#fff" opacity="0.6"/><circle cx="184" cy="522" r="1.7" fill="#fff" opacity="0.97"/><circle cx="916" cy="1180" r="2.1" fill="#fff" opacity="0.75"/><circle cx="737" cy="1283" r="0.8" fill="#fff" opacity="0.73"/><circle cx="579" cy="644" r="0.8" fill="#fff" opacity="0.88"/><circle cx="1284" cy="1495" r="1.7" fill="#fff" opacity="0.38"/><circle cx="699" cy="667" r="0.5" fill="#fff" opacity="0.85"/><circle cx="958" cy="1609" r="1.0" fill="#fff" opacity="0.44"/><circle cx="27" cy="1161" r="1.0" fill="#fff" opacity="0.61"/><circle cx="1276" cy="467" r="0.6" fill="#fff" opacity="0.87"/><circle cx="754" cy="495" r="0.8" fill="#fff" opacity="0.98"/><circle cx="990" cy="1865" r="0.8" fill="#fff" opacity="0.65"/><circle cx="463" cy="1466" r="1.2" fill="#fff" opacity="0.55"/><circle cx="782" cy="1117" r="0.5" fill="#fff" opacity="0.83"/><circle cx="1293" cy="1123" r="0.6" fill="#fff" opacity="0.36"/><circle cx="183" cy="350" r="1.2" fill="#fff" opacity="0.51"/><circle cx="181" cy="321" r="1.0" fill="#fff" opacity="0.55"/><circle cx="822" cy="1420" r="1.4" fill="#fff" opacity="0.94"/><circle cx="1439" cy="390" r="2.1" fill="#fff" opacity="0.84"/><circle cx="1298" cy="1418" r="1.0" fill="#fff" opacity="0.99"/><circle cx="53" cy="1244" r="0.8" fill="#fff" opacity="0.82"/><circle cx="1214" cy="1567" r="1.7" fill="#fff" opacity="0.59"/><circle cx="939" cy="240" r="0.5" fill="#fff" opacity="0.81"/><circle cx="1315" cy="1612" r="1.4" fill="#fff" opacity="0.85"/><circle cx="782" cy="267" r="0.8" fill="#fff" opacity="0.8"/><circle cx="404" cy="1517" r="0.8" fill="#fff" opacity="0.39"/><circle cx="1425" cy="1116" r="0.5" fill="#fff" opacity="0.87"/><circle cx="369" cy="993" r="0.8" fill="#fff" opacity="0.9"/><circle cx="1428" cy="800" r="0.8" fill="#fff" opacity="0.4"/><circle cx="296" cy="735" r="0.5" fill="#fff" opacity="0.91"/><circle cx="174" cy="1399" r="1.0" fill="#fff" opacity="0.44"/><circle cx="1198" cy="428" r="0.8" fill="#fff" opacity="0.32"/><circle cx="985" cy="977" r="1.2" fill="#fff" opacity="0.38"/><circle cx="255" cy="366" r="0.5" fill="#fff" opacity="0.87"/><circle cx="1295" cy="135" r="0.5" fill="#fff" opacity="0.32"/><circle cx="535" cy="1402" r="0.5" fill="#fff" opacity="0.67"/><circle cx="1007" cy="1095" r="0.6" fill="#fff" opacity="0.92"/><circle cx="323" cy="115" r="0.8" fill="#fff" opacity="0.32"/><circle cx="87" cy="206" r="0.8" fill="#fff" opacity="0.96"/><circle cx="1223" cy="1320" r="1.4" fill="#fff" opacity="0.68"/><circle cx="715" cy="966" r="0.5" fill="#fff" opacity="0.91"/><circle cx="798" cy="325" r="1.0" fill="#fff" opacity="0.66"/><circle cx="900" cy="1614" r="0.5" fill="#fff" opacity="0.71"/><circle cx="348" cy="1156" r="0.5" fill="#fff" opacity="0.55"/><circle cx="1339" cy="990" r="1.7" fill="#fff" opacity="0.89"/><circle cx="1180" cy="926" r="0.6" fill="#fff" opacity="0.46"/><circle cx="412" cy="1757" r="1.0" fill="#fff" opacity="0.75"/><circle cx="956" cy="1422" r="1.0" fill="#fff" opacity="0.85"/><circle cx="323" cy="457" r="0.5" fill="#fff" opacity="0.36"/><circle cx="1252" cy="754" r="2.1" fill="#fff" opacity="0.58"/><circle cx="586" cy="1772" r="2.1" fill="#fff" opacity="0.38"/><circle cx="738" cy="426" r="1.2" fill="#fff" opacity="0.79"/><circle cx="780" cy="852" r="0.5" fill="#fff" opacity="0.65"/><circle cx="109" cy="1563" r="1.7" fill="#fff" opacity="0.87"/><circle cx="1298" cy="61" r="0.8" fill="#fff" opacity="0.68"/><circle cx="553" cy="1341" r="1.7" fill="#fff" opacity="0.5"/><circle cx="238" cy="647" r="0.8" fill="#fff" opacity="0.85"/><circle cx="226" cy="1714" r="1.4" fill="#fff" opacity="0.43"/><circle cx="1048" cy="46" r="0.8" fill="#fff" opacity="0.93"/><circle cx="617" cy="1084" r="1.0" fill="#fff" opacity="0.42"/><circle cx="1336" cy="57" r="1.7" fill="#fff" opacity="0.73"/><circle cx="695" cy="430" r="1.7" fill="#fff" opacity="0.87"/><circle cx="648" cy="1029" r="0.6" fill="#fff" opacity="0.39"/><circle cx="501" cy="1511" r="1.7" fill="#fff" opacity="0.93"/><circle cx="488" cy="1437" r="1.0" fill="#fff" opacity="0.97"/><circle cx="980" cy="626" r="0.8" fill="#fff" opacity="0.33"/><circle cx="817" cy="870" r="2.1" fill="#fff" opacity="0.49"/><circle cx="131" cy="1140" r="0.5" fill="#fff" opacity="0.85"/><circle cx="538" cy="425" r="1.7" fill="#fff" opacity="0.38"/><circle cx="551" cy="209" r="0.8" fill="#fff" opacity="0.54"/><circle cx="995" cy="473" r="1.0" fill="#fff" opacity="0.41"/><circle cx="356" cy="877" r="1.0" fill="#fff" opacity="0.83"/><circle cx="153" cy="1349" r="0.8" fill="#fff" opacity="0.44"/><circle cx="1035" cy="821" r="2.1" fill="#fff" opacity="0.5"/><circle cx="279" cy="1653" r="2.1" fill="#fff" opacity="0.81"/><circle cx="898" cy="749" r="1.2" fill="#fff" opacity="0.53"/><circle cx="1249" cy="745" r="1.4" fill="#fff" opacity="0.4"/><circle cx="993" cy="175" r="0.6" fill="#fff" opacity="0.32"/><circle cx="1238" cy="350" r="1.2" fill="#fff" opacity="0.41"/><circle cx="696" cy="650" r="1.0" fill="#fff" opacity="0.94"/><circle cx="820" cy="1541" r="1.0" fill="#fff" opacity="0.84"/><circle cx="368" cy="667" r="0.8" fill="#fff" opacity="0.79"/><circle cx="216" cy="801" r="1.0" fill="#fff" opacity="0.58"/><circle cx="191" cy="1339" r="1.2" fill="#fff" opacity="0.42"/><circle cx="509" cy="36" r="1.2" fill="#fff" opacity="0.75"/><circle cx="112" cy="1805" r="0.8" fill="#fff" opacity="0.8"/><circle cx="32" cy="519" r="0.8" fill="#fff" opacity="0.7"/><circle cx="214" cy="1126" r="1.0" fill="#fff" opacity="0.57"/><circle cx="1078" cy="445" r="1.0" fill="#fff" opacity="0.9"/><circle cx="715" cy="1543" r="1.2" fill="#fff" opacity="0.65"/><circle cx="1061" cy="1649" r="1.4" fill="#fff" opacity="0.57"/><circle cx="1393" cy="152" r="1.2" fill="#fff" opacity="0.79"/><circle cx="207" cy="140" r="1.7" fill="#fff" opacity="0.88"/><circle cx="1091" cy="1374" r="1.0" fill="#fff" opacity="0.97"/><circle cx="1019" cy="32" r="1.7" fill="#fff" opacity="0.4"/><circle cx="895" cy="1755" r="2.1" fill="#fff" opacity="0.56"/><circle cx="675" cy="1010" r="1.0" fill="#fff" opacity="0.41"/><circle cx="319" cy="1315" r="2.1" fill="#fff" opacity="0.33"/><circle cx="445" cy="18" r="1.7" fill="#fff" opacity="0.47"/><circle cx="23" cy="228" r="1.7" fill="#fff" opacity="0.86"/><circle cx="974" cy="1014" r="0.8" fill="#fff" opacity="0.66"/><circle cx="579" cy="811" r="1.4" fill="#fff" opacity="0.88"/><circle cx="489" cy="1111" r="0.5" fill="#fff" opacity="0.69"/><circle cx="175" cy="967" r="0.8" fill="#fff" opacity="0.46"/><circle cx="336" cy="850" r="1.0" fill="#fff" opacity="0.66"/><circle cx="382" cy="1875" r="0.5" fill="#fff" opacity="0.39"/><circle cx="1186" cy="499" r="1.4" fill="#fff" opacity="0.75"/><circle cx="525" cy="1848" r="0.8" fill="#fff" opacity="0.88"/><circle cx="1213" cy="74" r="0.8" fill="#fff" opacity="0.84"/><circle cx="791" cy="853" r="0.6" fill="#fff" opacity="0.33"/><circle cx="1438" cy="825" r="0.5" fill="#fff" opacity="0.88"/><circle cx="771" cy="873" r="0.8" fill="#fff" opacity="0.71"/><circle cx="915" cy="1351" r="1.4" fill="#fff" opacity="0.38"/><circle cx="23" cy="564" r="0.5" fill="#fff" opacity="0.65"/><circle cx="513" cy="1868" r="1.4" fill="#fff" opacity="0.32"/><circle cx="846" cy="1702" r="1.0" fill="#fff" opacity="0.37"/><circle cx="1054" cy="120" r="0.8" fill="#fff" opacity="0.48"/><circle cx="911" cy="828" r="3.4" fill="#fff" opacity="0.16"/><circle cx="911" cy="828" r="1.5" fill="#fff" opacity="0.98"/><circle cx="418" cy="771" r="3.4" fill="#fff" opacity="0.16"/><circle cx="418" cy="771" r="1.5" fill="#fff" opacity="0.98"/><circle cx="438" cy="453" r="3.4" fill="#fff" opacity="0.16"/><circle cx="438" cy="453" r="1.5" fill="#fff" opacity="0.98"/><circle cx="664" cy="175" r="3.4" fill="#fff" opacity="0.16"/><circle cx="664" cy="175" r="1.5" fill="#fff" opacity="0.98"/><circle cx="396" cy="1310" r="3.4" fill="#fff" opacity="0.16"/><circle cx="396" cy="1310" r="1.5" fill="#fff" opacity="0.98"/><circle cx="1044" cy="521" r="3.4" fill="#fff" opacity="0.16"/><circle cx="1044" cy="521" r="1.5" fill="#fff" opacity="0.98"/><circle cx="1316" cy="518" r="3.4" fill="#fff" opacity="0.16"/><circle cx="1316" cy="518" r="1.5" fill="#fff" opacity="0.98"/></svg>