<svg xmlns="http://www.w3.org/2000/svg" viewBox="0 0 1440 1900"><circle cx="651" cy="1064" r="1.7" fill="#fff" opacity="0.59"/><circle cx="1231" cy="361" r="1.7" fill="#fff" opacity="0.71"/><circle cx="1142" cy="179" r="1.1" fill="#fff" opacity="0.39"/><circle cx="776" cy="1692" r="0.5" fill="#fff" opacity="0.69"/><circle cx="570" cy="861" r="0.9" fill="#fff" opacity="0.71"/><circle cx="1198" cy="120" r="0.5" fill="#fff" opacity="0.42"/><circle cx="348" cy="57" r="1.7" fill="#fff" opacity="0.51"/><circle cx="851" cy="371" r="0.9" fill="#fff" opacity="0.72"/><circle cx="720" cy="1259" r="1.7" fill="#fff" opacity="0.73"/><circle cx="586" cy="1047" r="0.7" fill="#fff" opacity="0.76"/><circle cx="454" cy="436" r="1.1" fill="#fff" opacity="0.32"/><circle cx="811" cy="205" r="0.7" fill="#fff" opacity="0.85"/><circle cx="557" cy="1820" r="0.5" fill="#fff" opacity="0.44"/><circle cx="1335" cy="99" r="1.4" fill="#fff" opacity="0.94"/><circle cx="572" cy="139" r="0.9" fill="#fff" opacity="0.81"/><circle cx="388" cy="166" r="1.1" fill="#fff" opacity="0.31"/><circle cx="590" cy="1753" r="0.9" fill="#fff" opacity="0.46"/><circle cx="146" cy="114" r="1.7" fill="#fff" opacity="0.42"/><circle cx="805" cy="850" r="0.9" fill="#fff" opacity="0.94"/><circle cx="1108" cy="797" r="1.4" fill="#fff" opacity="0.38"/><circle cx="606" cy="404" r="1.1" fill="#fff" opacity="0.86"/><circle cx="1404" cy="1126" r="0.5" fill="#fff" opacity="0.44"/><circle cx="568" cy="1623" r="0.7" fill="#fff" opacity="0.33"/><circle cx="211" cy="839" r="0.5" fill="#fff" opacity="0.8"/><circle cx="474" cy="563" r="0.7" fill="#fff" opacity="0.35"/><circle cx="301" cy="1210" r="0.5" fill="#fff" opacity="0.69"/><circle cx="535" cy="861" r="1.7" fill="#fff" opacity="0.84"/><circle cx="195" cy="734" r="0.9" fill="#fff" opacity="0.5"/><circle cx="329" cy="1160" r="0.9" fill="#fff" opacity="0.4"/><circle cx="906" cy="1052" r="1.4" fill="#fff" opacity="0.87"/><circle cx="869" cy="801" r="0.7" fill="#fff" opacity="0.37"/><circle cx="738" cy="485" r="1.4" fill="#fff" opacity="0.47"/><circle cx="1186" cy="1133" r="1.1" fill="#fff" opacity="0.64"/><circle cx="1338" cy="1857" r="0.9" fill="#fff" opacity="0.45"/><circle cx="805" cy="1620" r="0.7" fill="#fff" opacity="0.48"/><circle cx="1321" cy="388" r="0.5" fill="#fff" opacity="0.34"/><circle cx="592" cy="473" r="0.5" fill="#fff" opacity="0.41"/><circle cx="531" cy="1087" r="0.9" fill="#fff" opacity="0.36"/><circle cx="199" cy="856" r="1.1" fill="#fff" opacity="0.73"/><circle cx="995" cy="1110" r="0.9" fill="#fff" opacity="0.68"/><circle cx="1330" cy="902" r="1.1" fill="#fff" opacity="0.76"/><circle cx="1386" cy="40" r="0.7" fill="#fff" opacity="0.61"/><circle cx="1052" cy="606" r="0.7" fill="#fff" opacity="0.35"/><circle cx="786" cy="1400" r="0.9" fill="#fff" opacity="0.82"/><circle cx="1318" cy="668" r="1.7" fill="#fff" opacity="0.89"/><circle cx="1254" cy="793" r="0.5" fill="#fff" opacity="0.86"/><circle cx="825" cy="1187" r="1.4" fill="#fff" opacity="0.55"/><circle cx="18" cy="137" r="0.7" fill="#fff" opacity="0.72"/><circle cx="1430" cy="1672" r="1.1" fill="#fff" opacity="0.55"/><circle cx="1058" cy="1104" r="1.7" fill="#fff" opacity="0.6"/><circle cx="779" cy="986" r="0.5" fill="#fff" opacity="0.5"/><circle cx="126" cy="42" r="0.7" fill="#fff" opacity="0.62"/><circle cx="885" cy="1749" r="1.1" fill="#fff" opacity="0.88"/><circle cx="530" cy="272" r="0.9" fill="#fff" opacity="0.64"/><circle cx="1085" cy="651" r="1.7" fill="#fff" opacity="0.62"/><circle cx="348" cy="769" r="1.1" fill="#fff" opacity="0.43"/><circle cx="620" cy="1531" r="0.9" fill="#fff" opacity="0.87"/><circle cx="554" cy="1108" r="1.1" fill="#fff" opacity="0.44"/><circle cx="194" cy="666" r="0.5" fill="#fff" opacity="0.76"/><circle cx="1368" cy="526" r="0.9" fill="#fff" opacity="0.37"/><circle cx="679" cy="1759" r="1.4" fill="#fff" opacity="0.55"/><circle cx="749" cy="1277" r="1.7" fill="#fff" opacity="0.51"/><circle cx="1193" cy="528" r="0.5" fill="#fff" opacity="0.74"/><circle cx="405" cy="673" r="0.5" fill="#fff" opacity="0.72"/><circle cx="583" cy="361" r="1.1" fill="#fff" opacity="0.45"/><circle cx="203" cy="89" r="0.7" fill="#fff" opacity="0.59"/><circle cx="907" cy="1245" r="1.1" fill="#fff" opacity="0.92"/><circle cx="986" cy="379" r="1.7" fill="#fff" opacity="0.47"/><circle cx="1028" cy="1435" r="0.5" fill="#fff" opacity="0.42"/><circle cx="392" cy="657" r="0.9" fill="#fff" opacity="0.56"/><circle cx="1140" cy="1722" r="0.7" fill="#fff" opacity="0.57"/><circle cx="1285" cy="737" r="1.7" fill="#fff" opacity="0.59"/><circle cx="901" cy="1729" r="1.4" fill="#fff" opacity="0.66"/><circle cx="940" cy="955" r="1.1" fill="#fff" opacity="0.6"/><circle cx="938" cy="389" r="0.7" fill="#fff" opacity="0.44"/><circle cx="1296" cy="1863" r="1.1" fill="#fff" opacity="0.65"/><circle cx="1139" cy="609" r="0.5" fill="#fff" opacity="0.53"/><circle cx="119" cy="838" r="1.4" fill="#fff" opacity="0.8"/><circle cx="702" cy="54" r="0.7" fill="#fff" opacity="0.58"/><circle cx="51" cy="1013" r="0.9" fill="#fff" opacity="0.61"/><circle cx="1440" cy="1711" r="1.7" fill="#fff" opacity="0.91"/><circle cx="709" cy="1803" r="0.7" fill="#fff" opacity="0.79"/><circle cx="633" cy="1062" r="0.9" fill="#fff" opacity="0.64"/><circle cx="1215" cy="1064" r="1.1" fill="#fff" opacity="0.74"/><circle cx="1375" cy="1653" r="0.9" fill="#fff" opacity="0.5"/><circle cx="203" cy="1035" r="1.1" fill="#fff" opacity="0.67"/><circle cx="289" cy="1018" r="0.5" fill="#fff" opacity="0.69"/><circle cx="40" cy="1842" r="1.4" fill="#fff" opacity="0.65"/><circle cx="1425" cy="232" r="0.7" fill="#fff" opacity="0.75"/><circle cx="95" cy="1024" r="1.4" fill="#fff" opacity="0.9"/><circle cx="1153" cy="768" r="0.9" fill="#fff" opacity="0.61"/><circle cx="183" cy="824" r="1.7" fill="#fff" opacity="0.64"/><circle cx="156" cy="797" r="0.5" fill="#fff" opacity="0.9"/><circle cx="186" cy="1481" r="0.5" fill="#fff" opacity="0.32"/><circle cx="224" cy="22" r="1.1" fill="#fff" opacity="0.51"/><circle cx="512" cy="1178" r="0.7" fill="#fff" opacity="0.62"/><circle cx="838" cy="1619" r="1.1" fill="#fff" opacity="0.77"/><circle cx="1010" cy="1670" r="0.5" fill="#fff" opacity="0.54"/><circle cx="595" cy="1006" r="0.9" fill="#fff" opacity="0.65"/><circle cx="1244" cy="1015" r="0.9" fill="#fff" opacity="0.64"/><circle cx="1226" cy="1162" r="0.9" fill="#fff" opacity="0.45"/><circle cx="1067" cy="1540" r="0.9" fill="#fff" opacity="0.51"/><circle cx="454" cy="1753" r="0.9" fill="#fff" opacity="0.81"/><circle cx="280" cy="184" r="0.9" fill="#fff" opacity="0.39"/><circle cx="127" cy="737" r="1.4" fill="#fff" opacity="0.84"/><circle cx="607" cy="1501" r="0.9" fill="#fff" opacity="0.43"/><circle cx="904" cy="1518" r="0.7" fill="#fff" opacity="0.43"/><circle cx="983" cy="1732" r="1.1" fill="#fff" opacity="0.38"/><circle cx="728" cy="1440" r="0.9" fill="#fff" opacity="0.82"/><circle cx="694" cy="46" r="1.7" fill="#fff" opacity="0.4"/><circle cx="266" cy="387" r="0.9" fill="#fff" opacity="0.94"/><circle cx="1335" cy="181" r="0.5" fill="#fff" opacity="0.39"/><circle cx="981" cy="147" r="0.7" fill="#fff" opacity="0.51"/><circle cx="672" cy="979" r="1.4" fill="#fff" opacity="0.44"/><circle cx="537" cy="1205" r="0.5" fill="#fff" opacity="0.85"/><circle cx="261" cy="863" r="1.1" fill="#fff" opacity="0.56"/><circle cx="281" cy="314" r="0.5" fill="#fff" opacity="0.51"/><circle cx="122" cy="1600" r="1.4" fill="#fff" opacity="0.67"/><circle cx="275" cy="1111" r="1.1" fill="#fff" opacity="0.82"/><circle cx="372" cy="1731" r="0.9" fill="#fff" opacity="0.83"/><circle cx="584" cy="1703" r="1.1" fill="#fff" opacity="0.8"/><circle cx="1102" cy="771" r="0.9" fill="#fff" opacity="0.35"/><circle cx="492" cy="891" r="0.5" fill="#fff" opacity="0.88"/><circle cx="1426" cy="1715" r="0.5" fill="#fff" opacity="0.45"/><circle cx="1360" cy="1266" r="1.1" fill="#fff" opacity="0.44"/><circle cx="585" cy="346" r="0.7" fill="#fff" opacity="0.55"/><circle cx="1440" cy="1220" r="0.7" fill="#fff" opacity="0.8"/><circle cx="1411" cy="43" r="0.7" fill="#fff" opacity="0.78"/><circle cx="370" cy="763" r="0.5" fill="#fff" opacity="0.79"/><circle cx="933" cy="20" r="1.1" fill="#fff" opacity="0.46"/><circle cx="1304" cy="1045" r="1.4" fill="#fff" opacity="0.93"/><circle cx="818" cy="1891" r="1.7" fill="#fff" opacity="0.83"/><circle cx="110" cy="1135" r="0.5" fill="#fff" opacity="0.55"/><circle cx="1352" cy="733" r="0.9" fill="#fff" opacity="0.86"/><circle cx="780" cy="1133" r="1.4" fill="#fff" opacity="0.91"/><circle cx="606" cy="1001" r="1.1" fill="#fff" opacity="0.54"/><circle cx="411" cy="1245" r="1.1" fill="#fff" opacity="0.73"/><circle cx="1077" cy="51" r="0.9" fill="#fff" opacity="0.68"/><circle cx="912" cy="777" r="1.4" fill="#fff" opacity="0.33"/><circle cx="454" cy="756" r="1.1" fill="#fff" opacity="0.35"/><circle cx="1304" cy="816" r="1.7" fill="#fff" opacity="0.46"/><circle cx="1088" cy="86" r="0.7" fill="#fff" opacity="0.91"/><circle cx="1041" cy="890" r="0.9" fill="#fff" opacity="0.69"/><circle cx="166" cy="1186" r="1.7" fill="#fff" opacity="0.38"/><circle cx="1240" cy="678" r="0.9" fill="#fff" opacity="0.38"/><circle cx="638" cy="1269" r="1.7" fill="#fff" opacity="0.69"/><circle cx="921" cy="1296" r="1.1" fill="#fff" opacity="0.81"/><circle cx="764" cy="1896" r="1.1" fill="#fff" opacity="0.78"/><circle cx="343" cy="216" r="1.1" fill="#fff" opacity="0.81"/><circle cx="900" cy="682" r="1.1" fill="#fff" opacity="0.7"/><circle cx="1044" cy="1328" r="0.9" fill="#fff" opacity="0.71"/><circle cx="1085" cy="361" r="0.9" fill="#fff" opacity="0.63"/><circle cx="940" cy="372" r="0.5" fill="#fff" opacity="0.71"/><circle cx="14" cy="493" r="0.5" fill="#fff" opacity="0.71"/><circle cx="148" cy="1029" r="0.7" fill="#fff" opacity="0.79"/><circle cx="1315" cy="306" r="0.9" fill="#fff" opacity="0.71"/><circle cx="537" cy="909" r="0.9" fill="#fff" opacity="0.52"/><circle cx="712" cy="253" r="0.7" fill="#fff" opacity="0.82"/><circle cx="644" cy="1562" r="0.9" fill="#fff" opacity="0.59"/><circle cx="1076" cy="741" r="0.9" fill="#fff" opacity="0.54"/></svg>